<?xml version="1.0" encoding="utf-8"?>
<!-- Generator: Adobe Illustrator 15.0.0, SVG Export Plug-In  -->
<!DOCTYPE svg PUBLIC "-//W3C//DTD SVG 1.1//EN" "http://www.w3.org/Graphics/SVG/1.1/DTD/svg11.dtd" [
	<!ENTITY ns_flows "http://ns.adobe.com/Flows/1.0/">
]>
<svg version="1.1"
	 xmlns="http://www.w3.org/2000/svg" xmlns:xlink="http://www.w3.org/1999/xlink" xmlns:a="http://ns.adobe.com/AdobeSVGViewerExtensions/3.0/"
	 x="0px" y="0px" width="199px" height="93px" viewBox="0 16.104 199 93"
	 overflow="visible" enable-background="new 0 16.104 199 93" xml:space="preserve">
<defs>
</defs>
<path fill="#F4F5F5" d="M169.379,93.208c-0.327,0-0.654-0.058-0.967-0.174c-0.752-0.28-1.346-0.874-1.626-1.628
	c-10.494-28.211-37.735-47.165-67.789-47.165c-28.752,0-54.775,17.073-66.3,43.497c-0.31,0.711-0.905,1.26-1.641,1.512
	c-0.291,0.1-0.592,0.148-0.894,0.148c-0.459,0-0.916-0.115-1.328-0.34L8.98,78.188c-1.276-0.698-1.793-2.266-1.184-3.585
	c16.393-35.511,52.19-58.455,91.2-58.455c40.852,0,77.313,24.463,92.887,62.321c0.537,1.304,0.008,2.802-1.229,3.478l-19.948,10.921
	C170.294,93.093,169.839,93.208,169.379,93.208z"/>
<path d="M98.997,41.475c32.223,0,59.756,20.403,70.382,48.967l19.947-10.919c-14.614-35.525-49.595-60.609-90.329-60.609
	c-39.281,0-73.213,23.328-88.689,56.849l19.855,10.87C41.741,60.083,68.229,41.475,98.997,41.475z"/>
<path fill="#F4F5F5" d="M21.477,105.363c-0.837,0-1.646-0.382-2.178-1.061c-0.173-0.223-3.665-4.719-5.749-10.135
	c-1.534,0.508-3.529,0.963-5.734,0.963c-1.874,0-3.671-0.325-5.348-0.969c-0.746-0.287-1.331-0.88-1.605-1.629
	s-0.212-1.582,0.17-2.281c0.001-0.001,3.518-6.431,7.242-13.283c0.35-0.646,0.944-1.125,1.649-1.334
	c0.256-0.074,0.519-0.113,0.78-0.113c0.46,0,0.917,0.115,1.329,0.342l17.356,9.504c0.781,0.427,1.307,1.202,1.417,2.085
	c0.109,0.882-0.212,1.765-0.864,2.368c-0.026,0.025-4.249,4.162-5.736,13.225c-0.178,1.084-0.979,1.959-2.042,2.23
	C21.936,105.333,21.706,105.363,21.477,105.363z"/>
<path d="M10.705,78.289l17.356,9.503c0,0-4.9,4.545-6.584,14.806c0,0-4.678-5.975-6.217-12.155c0,0-5.854,3.421-11.8,1.138
	C3.46,91.58,6.979,85.146,10.705,78.289z"/>
<path fill="#F4F5F5" d="M177.521,108.985c-0.228,0-0.459-0.028-0.687-0.086c-1.063-0.272-1.863-1.148-2.043-2.232
	c-1.486-9.062-5.708-13.198-5.752-13.239c-0.636-0.611-0.952-1.494-0.835-2.368c0.115-0.874,0.632-1.647,1.404-2.07l17.357-9.505
	c0.41-0.224,0.867-0.339,1.327-0.339c0.263,0,0.524,0.037,0.781,0.112c0.704,0.208,1.299,0.688,1.649,1.333
	c3.723,6.854,7.242,13.284,7.242,13.284c0.382,0.699,0.444,1.531,0.169,2.28c-0.274,0.749-0.859,1.343-1.605,1.629
	c-1.673,0.644-3.474,0.97-5.347,0.97c-0.001,0-0.001,0-0.001,0c-2.205,0-4.2-0.457-5.734-0.964
	c-2.081,5.416-5.574,9.913-5.747,10.135C179.169,108.604,178.359,108.985,177.521,108.985z"/>
<path d="M188.294,81.912l-17.356,9.504c0,0,4.902,4.544,6.584,14.804c0,0,4.679-5.974,6.218-12.155c0,0,5.853,3.422,11.802,1.139
	C195.541,95.203,192.02,88.769,188.294,81.912z"/>
<path fill="none" d="M178.509,91.126c15.017,43.91-8.407,91.684-52.319,106.702c-43.914,15.017-91.685-8.409-106.703-52.317
	C4.47,101.595,27.894,53.823,71.803,38.805C115.719,23.788,163.491,47.212,178.509,91.126z"/>
<text transform="matrix(0.549 -0.8358 0.8358 0.549 26.7793 75.25)"><tspan x="0" y="0" fill="#F4F5F5" stroke="#FFFFFF" stroke-width="0.5" stroke-miterlimit="10" font-family="'CopperplateGothic-Bold'" font-size="11.0636">T</tspan><tspan x="7.495" y="-0.05" fill="#F4F5F5" stroke="#FFFFFF" stroke-width="0.5" stroke-miterlimit="10" font-family="'CopperplateGothic-Bold'" font-size="11.0636" rotate="5.781">H</tspan><tspan x="16.976" y="0.941" fill="#F4F5F5" stroke="#FFFFFF" stroke-width="0.5" stroke-miterlimit="10" font-family="'CopperplateGothic-Bold'" font-size="11.0636" rotate="11.917">E</tspan><tspan x="25.277" y="2.793" fill="#F4F5F5" stroke="#FFFFFF" stroke-width="0.5" stroke-miterlimit="10" font-family="'CopperplateGothic-Bold'" font-size="11.0636" rotate="15.816"> </tspan><tspan x="28.067" y="3.485" fill="#F4F5F5" stroke="#FFFFFF" stroke-width="0.5" stroke-miterlimit="10" font-family="'CopperplateGothic-Bold'" font-size="11.0636" rotate="19.744">P</tspan><tspan x="36.068" y="6.346" fill="#F4F5F5" stroke="#FFFFFF" stroke-width="0.5" stroke-miterlimit="10" font-family="'CopperplateGothic-Bold'" font-size="11.0636" rotate="25.739">R</tspan><tspan x="44.172" y="10.274" fill="#F4F5F5" stroke="#FFFFFF" stroke-width="0.5" stroke-miterlimit="10" font-family="'CopperplateGothic-Bold'" font-size="11.0636" rotate="31.704">E</tspan><tspan x="51.337" y="14.746" fill="#F4F5F5" stroke="#FFFFFF" stroke-width="0.5" stroke-miterlimit="10" font-family="'CopperplateGothic-Bold'" font-size="11.0636" rotate="36.893">S</tspan><tspan x="57.733" y="19.568" fill="#F4F5F5" stroke="#FFFFFF" stroke-width="0.5" stroke-miterlimit="10" font-family="'CopperplateGothic-Bold'" font-size="11.0636" rotate="42.784">E</tspan><tspan x="63.956" y="25.281" fill="#F4F5F5" stroke="#FFFFFF" stroke-width="0.5" stroke-miterlimit="10" font-family="'CopperplateGothic-Bold'" font-size="11.0636" rotate="48.959">N</tspan><tspan x="70.269" y="32.621" fill="#F4F5F5" stroke="#FFFFFF" stroke-width="0.5" stroke-miterlimit="10" font-family="'CopperplateGothic-Bold'" font-size="11.0636" rotate="54.854">T</tspan><tspan x="74.56" y="38.849" fill="#F4F5F5" stroke="#FFFFFF" stroke-width="0.5" stroke-miterlimit="10" font-family="'CopperplateGothic-Bold'" font-size="11.0636" rotate="58.439"> </tspan><tspan x="76.1" y="41.347" fill="#F4F5F5" stroke="#FFFFFF" stroke-width="0.5" stroke-miterlimit="10" font-family="'CopperplateGothic-Bold'" font-size="11.0636" rotate="60.748">I</tspan><tspan x="77.987" y="44.57" fill="#F4F5F5" stroke="#FFFFFF" stroke-width="0.5" stroke-miterlimit="10" font-family="'CopperplateGothic-Bold'" font-size="11.0636" rotate="64.791">S</tspan><tspan x="81.342" y="51.9" fill="#F4F5F5" stroke="#FFFFFF" stroke-width="0.5" stroke-miterlimit="10" font-family="'CopperplateGothic-Bold'" font-size="11.0636" rotate="68.521"> </tspan><tspan x="82.492" y="54.533" fill="#F4F5F5" stroke="#FFFFFF" stroke-width="0.5" stroke-miterlimit="10" font-family="'CopperplateGothic-Bold'" font-size="11.0636" rotate="72.595">A</tspan><tspan x="85.101" y="63.232" fill="#F4F5F5" stroke="#FFFFFF" stroke-width="0.5" stroke-miterlimit="10" font-family="'CopperplateGothic-Bold'" font-size="11.0636" rotate="76.647"> </tspan><tspan x="85.852" y="65.993" fill="#F4F5F5" stroke="#FFFFFF" stroke-width="0.5" stroke-miterlimit="10" font-family="'CopperplateGothic-Bold'" font-size="11.0636" rotate="80.516">P</tspan><tspan x="87.266" y="74.401" fill="#F4F5F5" stroke="#FFFFFF" stroke-width="0.5" stroke-miterlimit="10" font-family="'CopperplateGothic-Bold'" font-size="11.0636" rotate="86.452">R</tspan><tspan x="87.806" y="83.368" fill="#F4F5F5" stroke="#FFFFFF" stroke-width="0.5" stroke-miterlimit="10" font-family="'CopperplateGothic-Bold'" font-size="11.0636" rotate="92.361">E</tspan><tspan x="87.446" y="91.814" fill="#F4F5F5" stroke="#FFFFFF" stroke-width="0.5" stroke-miterlimit="10" font-family="'CopperplateGothic-Bold'" font-size="11.0636" rotate="97.965">S</tspan><tspan x="86.341" y="99.764" fill="#F4F5F5" stroke="#FFFFFF" stroke-width="0.5" stroke-miterlimit="10" font-family="'CopperplateGothic-Bold'" font-size="11.0636" rotate="103.602">E</tspan><tspan x="84.389" y="107.973" fill="#F4F5F5" stroke="#FFFFFF" stroke-width="0.5" stroke-miterlimit="10" font-family="'CopperplateGothic-Bold'" font-size="11.0636" rotate="109.812">N</tspan><tspan x="81.046" y="117.075" fill="#F4F5F5" stroke="#FFFFFF" stroke-width="0.5" stroke-miterlimit="10" font-family="'CopperplateGothic-Bold'" font-size="11.0636" rotate="115.718">T</tspan></text>
<rect id="_x3C_Slice_x3E__10_" y="16.104" fill="none" width="199" height="93"/>
</svg>
