<?xml version="1.0" encoding="utf-8"?>
<!-- Generator: Adobe Illustrator 15.0.0, SVG Export Plug-In  -->
<!DOCTYPE svg PUBLIC "-//W3C//DTD SVG 1.1//EN" "http://www.w3.org/Graphics/SVG/1.1/DTD/svg11.dtd" [
	<!ENTITY ns_flows "http://ns.adobe.com/Flows/1.0/">
]>
<svg version="1.1"
	 xmlns="http://www.w3.org/2000/svg" xmlns:xlink="http://www.w3.org/1999/xlink" xmlns:a="http://ns.adobe.com/AdobeSVGViewerExtensions/3.0/"
	 x="0px" y="0px" width="107px" height="107px" viewBox="0 0 107 107" overflow="visible" enable-background="new 0 0 107 107"
	 xml:space="preserve">
<defs>
</defs>
<path d="M47.934,7.37c0,0,5.131-2.17,5.069-6.469c0.063,4.375,5.254,6.321,5.254,6.321L47.934,7.37z"/>
<path d="M59.598,100.434c0,0-5.132,2.172-5.07,6.469c-0.062-4.374-5.253-6.32-5.253-6.32L59.598,100.434z"/>
<path d="M82.545,16.875c0,0,5.163,2.094,8.158-0.989c-3.048,3.138-0.752,8.184-0.752,8.184L82.545,16.875z"/>
<path d="M24.986,90.93c0,0-5.165-2.096-8.16,0.988c3.049-3.141,0.755-8.184,0.755-8.184L24.986,90.93z"/>
<path d="M16.739,25.123c0,0,2.093-5.164-0.99-8.16c3.138,3.051,8.185,0.755,8.185,0.755L16.739,25.123z"/>
<path d="M90.794,82.681c0,0-2.094,5.163,0.988,8.16c-3.139-3.052-8.184-0.756-8.184-0.756L90.794,82.681z"/>
<path d="M100.298,48.07c0,0,2.17,5.132,6.469,5.069c-4.376,0.062-6.32,5.253-6.32,5.253L100.298,48.07z"/>
<path d="M7.233,59.733c0,0-2.171-5.132-6.469-5.069c4.375-0.064,6.321-5.255,6.321-5.255L7.233,59.733z"/>
<path d="M65.861,8.592c0,0,5.569-0.081,7.129-4.087c-1.588,4.078,2.491,7.832,2.491,7.832L65.861,8.592z"/>
<path d="M41.67,99.211c0,0-5.571,0.083-7.13,4.089c1.586-4.079-2.491-7.833-2.491-7.833L41.67,99.211z"/>
<path d="M94.356,30.416c0,0,3.996,3.883,7.933,2.15c-4.006,1.762-3.775,7.301-3.775,7.301L94.356,30.416z"/>
<path d="M13.174,77.389c0,0-3.998-3.884-7.933-2.154c4.006-1.762,3.777-7.297,3.777-7.297L13.174,77.389z"/>
<path d="M30.279,13.311c0,0,3.881-3.996,2.151-7.932c1.761,4.006,7.299,3.776,7.299,3.776L30.279,13.311z"/>
<path d="M77.253,94.492c0,0-3.882,3.998-2.152,7.933c-1.762-4.006-7.299-3.777-7.299-3.777L77.253,94.492z"/>
<path d="M99.075,65.997c0,0,0.081,5.569,4.087,7.129c-4.075-1.588-7.83,2.489-7.83,2.489L99.075,65.997z"/>
<path d="M8.455,41.807c0,0-0.081-5.572-4.086-7.13c4.078,1.587,7.832-2.49,7.832-2.49L8.455,41.807z"/>
<path d="M57.34,7.142c0,0,5.462-1.102,6.26-5.326c-0.812,4.299,3.886,7.241,3.886,7.241L57.34,7.142z"/>
<path d="M50.19,100.661c0,0-5.461,1.102-6.259,5.326c0.812-4.3-3.885-7.24-3.885-7.24L50.19,100.661z"/>
<path d="M89.358,23.366c0,0,4.64,3.081,8.193,0.659c-3.616,2.465-2.375,7.867-2.375,7.867L89.358,23.366z"/>
<path d="M18.173,84.438c0,0-4.64-3.082-8.191-0.66c3.614-2.467,2.373-7.867,2.373-7.867L18.173,84.438z"/>
<path d="M23.229,18.31c0,0,3.082-4.641,0.66-8.192c2.466,3.615,7.868,2.373,7.868,2.373L23.229,18.31z"/>
<path d="M84.303,89.494c0,0-3.082,4.642-0.66,8.193c-2.465-3.618-7.867-2.375-7.867-2.375L84.303,89.494z"/>
<path d="M100.525,57.478c0,0,1.102,5.46,5.326,6.256c-4.3-0.812-7.242,3.888-7.242,3.888L100.525,57.478z"/>
<path d="M7.005,50.326c0,0-1.102-5.46-5.327-6.258c4.3,0.812,7.241-3.887,7.241-3.887L7.005,50.326z"/>
<path d="M74.648,11.912c0,0,5.475,1.031,7.802-2.585c-2.369,3.68,0.879,8.171,0.879,8.171L74.648,11.912z"/>
<path d="M32.883,95.894c0,0-5.475-1.031-7.801,2.584c2.367-3.682-0.88-8.172-0.88-8.172L32.883,95.894z"/>
<path d="M98.223,38.977c0,0,3.145,4.6,7.346,3.689c-4.277,0.926-5.156,6.398-5.156,6.398L98.223,38.977z"/>
<path d="M9.308,68.828c0,0-3.144-4.601-7.344-3.689c4.276-0.928,5.155-6.401,5.155-6.401L9.308,68.828z"/>
<path d="M38.839,9.445c0,0,4.6-3.143,3.688-7.344c0.927,4.276,6.399,5.156,6.399,5.156L38.839,9.445z"/>
<path d="M68.692,98.358c0,0-4.601,3.144-3.689,7.344c-0.926-4.275-6.399-5.154-6.399-5.154L68.692,98.358z"/>
<path d="M95.758,74.783c0,0-1.031,5.476,2.582,7.801c-3.68-2.369-8.17,0.879-8.17,0.879L95.758,74.783z"/>
<path d="M11.774,33.021c0,0,1.03-5.477-2.585-7.803c3.681,2.368,8.172-0.88,8.172-0.88L11.774,33.021z"/>
<path d="M100.628,53.171C101,79.04,80.329,100.314,54.457,100.684C28.587,101.059,7.312,80.386,6.94,54.517
	C6.568,28.646,27.24,7.372,53.11,7C78.983,6.627,100.256,27.299,100.628,53.171z"/>
<rect id="_x3C_Slice_x3E__10_" fill="none" width="107" height="107"/>
</svg>
