<?xml version="1.0" encoding="utf-8"?>
<!-- Generator: Adobe Illustrator 15.0.0, SVG Export Plug-In  -->
<!DOCTYPE svg PUBLIC "-//W3C//DTD SVG 1.1//EN" "http://www.w3.org/Graphics/SVG/1.1/DTD/svg11.dtd" [
	<!ENTITY ns_flows "http://ns.adobe.com/Flows/1.0/">
]>
<svg version="1.1"
	 xmlns="http://www.w3.org/2000/svg" xmlns:xlink="http://www.w3.org/1999/xlink" xmlns:a="http://ns.adobe.com/AdobeSVGViewerExtensions/3.0/"
	 x="0px" y="0px" width="92px" height="127px" viewBox="0 0 92 127" overflow="visible" enable-background="new 0 0 92 127"
	 xml:space="preserve">
<defs>
</defs>
<g id="XMLID_1_">
	<g>
		<path fill="#231F20" d="M57.875,19.608c0-6.953-5.658-12.611-12.611-12.611s-12.611,5.659-12.611,12.611
			c0,6.952,5.659,12.611,12.611,12.611S57.875,26.561,57.875,19.608z M45.264,6.176c7.406,0,13.441,6.025,13.441,13.432
			c0,7.416-6.035,13.441-13.441,13.441c-7.416,0-13.441-6.025-13.441-13.441C31.823,12.202,37.848,6.176,45.264,6.176z"/>
		<path fill="#FFFFFF" d="M58.705,19.608c0-7.407-6.035-13.432-13.441-13.432c-7.416,0-13.441,6.025-13.441,13.432
			c0,7.416,6.025,13.441,13.441,13.441C52.67,33.05,58.705,27.024,58.705,19.608z M62.655,19.608
			c0,9.588-7.803,17.391-17.391,17.391c-9.589,0-17.391-7.802-17.391-17.391c0-9.589,7.802-17.391,17.391-17.391
			C54.853,2.217,62.655,10.02,62.655,19.608z"/>
		<path fill="#231F20" d="M45.264,36.999c9.588,0,17.391-7.802,17.391-17.391c0-9.589-7.803-17.391-17.391-17.391
			c-9.589,0-17.391,7.802-17.391,17.391C27.873,29.197,35.675,36.999,45.264,36.999z M63.794,19.608
			c0,10.216-8.313,18.53-18.53,18.53s-18.53-8.314-18.53-18.53s8.314-18.531,18.53-18.531S63.794,9.392,63.794,19.608z"/>
	</g>
	<g>
	</g>
</g>
<rect x="40.026" y="28.872" fill="#F4F5F5" width="11.074" height="7.593"/>
<circle fill="#FFFFFF" stroke="#231F20" stroke-width="2.12" stroke-miterlimit="10" cx="46.08" cy="81.417" r="44.167"/>
<circle fill="none" stroke="#231F20" stroke-width="1.4133" stroke-miterlimit="10" cx="46.081" cy="81.417" r="40.281"/>
<circle fill="none" stroke="#231F20" stroke-width="0.7067" stroke-miterlimit="10" cx="46.081" cy="81.417" r="34.274"/>
<rect x="45.626" y="48.018" fill="#231F20" width="0.909" height="3.678"/>
<rect x="45.626" y="111.141" fill="#231F20" width="0.909" height="3.676"/>
<rect x="73.085" y="64.017" transform="matrix(-0.4959 -0.8684 0.8684 -0.4959 52.822 162.3722)" fill="#231F20" width="0.91" height="3.676"/>
<rect x="18.167" y="95.14" transform="matrix(-0.4917 -0.8708 0.8708 -0.4917 -56.6676 160.8773)" fill="#231F20" width="0.911" height="3.678"/>
<rect x="72.889" y="95.482" transform="matrix(0.5053 -0.863 0.863 0.5053 -47.6992 111.4379)" fill="#231F20" width="0.906" height="3.676"/>
<rect x="18.365" y="63.674" transform="matrix(0.5047 -0.8633 0.8633 0.5047 -47.2357 48.697)" fill="#231F20" width="0.909" height="3.677"/>
<rect x="29.916" y="52.207" transform="matrix(-0.8668 0.4987 -0.4987 -0.8668 83.6453 85.7453)" fill="#231F20" width="0.909" height="3.676"/>
<rect x="61.338" y="106.952" transform="matrix(-0.8665 0.4993 -0.4993 -0.8665 169.6477 172.2)" fill="#231F20" width="0.91" height="3.675"/>
<rect x="61.677" y="52.402" transform="matrix(-0.8606 -0.5093 0.5093 -0.8606 87.9781 132.5642)" fill="#231F20" width="0.909" height="3.678"/>
<rect x="29.576" y="106.753" transform="matrix(-0.8609 -0.5088 0.5088 -0.8609 0.6323 217.3575)" fill="#231F20" width="0.91" height="3.678"/>
<rect x="75.804" y="80.963" fill="#231F20" width="3.678" height="0.909"/>
<rect x="12.68" y="80.963" fill="#231F20" width="3.677" height="0.909"/>
<rect x="45.626" y="48.018" fill="#231F20" width="0.909" height="3.678"/>
<rect x="45.626" y="111.141" fill="#231F20" width="0.909" height="3.676"/>
<rect x="73.085" y="64.017" transform="matrix(-0.4959 -0.8684 0.8684 -0.4959 52.822 162.3722)" fill="#231F20" width="0.91" height="3.676"/>
<rect x="18.167" y="95.14" transform="matrix(-0.4917 -0.8708 0.8708 -0.4917 -56.6676 160.8773)" fill="#231F20" width="0.911" height="3.678"/>
<rect x="72.889" y="95.482" transform="matrix(0.5053 -0.863 0.863 0.5053 -47.6992 111.4379)" fill="#231F20" width="0.906" height="3.676"/>
<rect x="18.365" y="63.674" transform="matrix(0.5047 -0.8633 0.8633 0.5047 -47.2357 48.697)" fill="#231F20" width="0.909" height="3.677"/>
<rect x="29.916" y="52.207" transform="matrix(-0.8668 0.4987 -0.4987 -0.8668 83.6453 85.7453)" fill="#231F20" width="0.909" height="3.676"/>
<rect x="61.338" y="106.952" transform="matrix(-0.8665 0.4993 -0.4993 -0.8665 169.6477 172.2)" fill="#231F20" width="0.91" height="3.675"/>
<rect x="61.677" y="52.402" transform="matrix(-0.8606 -0.5093 0.5093 -0.8606 87.9781 132.5642)" fill="#231F20" width="0.909" height="3.678"/>
<rect x="29.576" y="106.753" transform="matrix(-0.8609 -0.5088 0.5088 -0.8609 0.6323 217.3575)" fill="#231F20" width="0.91" height="3.678"/>
<rect x="75.804" y="80.963" fill="#231F20" width="3.678" height="0.909"/>
<rect x="12.68" y="80.963" fill="#231F20" width="3.677" height="0.909"/>
<rect x="45.642" y="48.018" fill="#231F20" width="0.876" height="2.618"/>
<rect x="45.642" y="111.669" fill="#231F20" width="0.876" height="2.619"/>
<rect x="76.341" y="88.244" transform="matrix(0.2627 -0.9649 0.9649 0.2627 -29.8021 140.1049)" fill="#231F20" width="0.873" height="2.619"/>
<rect x="14.946" y="71.442" transform="matrix(0.2653 -0.9642 0.9642 0.2653 -58.8421 68.2788)" fill="#231F20" width="0.874" height="2.618"/>
<rect x="54.492" y="49.272" transform="matrix(-0.9606 -0.2778 0.2778 -0.9606 93.6448 114.4322)" fill="#231F20" width="0.875" height="2.619"/>
<rect x="36.794" y="110.415" transform="matrix(-0.9605 -0.2781 0.2781 -0.9605 41.922 229.3931)" fill="#231F20" width="0.874" height="2.617"/>
<rect x="68.228" y="102.268" transform="matrix(0.7049 -0.7093 0.7093 0.7049 -53.206 79.2754)" fill="#231F20" width="0.876" height="2.62"/>
<rect x="23.059" y="57.419" transform="matrix(0.7046 -0.7096 0.7096 0.7046 -34.7326 34.0224)" fill="#231F20" width="0.875" height="2.617"/>
<rect x="37.007" y="49.212" transform="matrix(-0.9624 0.2715 -0.2715 -0.9624 87.1976 88.9796)" fill="#231F20" width="0.874" height="2.618"/>
<rect x="54.28" y="110.475" transform="matrix(-0.9624 0.2716 -0.2716 -0.9624 137.7401 204.5026)" fill="#231F20" width="0.874" height="2.618"/>
<rect x="76.237" y="71.069" transform="matrix(-0.2758 -0.9612 0.9612 -0.2758 28.2458 166.0379)" fill="#231F20" width="0.875" height="2.618"/>
<rect x="15.048" y="88.617" transform="matrix(-0.2759 -0.9612 0.9612 -0.2759 -66.6756 129.6219)" fill="#231F20" width="0.878" height="2.617"/>
<rect x="68.786" y="57.996" transform="matrix(-0.6867 -0.727 0.727 -0.6867 73.6458 150.3492)" fill="#231F20" width="0.873" height="2.616"/>
<rect x="22.501" y="101.691" transform="matrix(-0.6856 -0.728 0.728 -0.6856 -36.3157 190.3172)" fill="#231F20" width="0.876" height="2.619"/>
<rect x="45.642" y="48.018" fill="#231F20" width="0.876" height="2.618"/>
<rect x="45.642" y="111.669" fill="#231F20" width="0.876" height="2.619"/>
<path fill="#FFFFFF" stroke="#231F20" stroke-width="2.12" stroke-miterlimit="10" d="M9.074,50.92c0.414,0.414,1.085,0.414,1.5,0
	l4.489-4.491c0.415-0.414,0.415-1.084,0-1.499l-6.053-6.054c-0.414-0.414-1.085-0.415-1.5,0l-4.489,4.49
	c-0.415,0.414-0.415,1.085,0,1.498L9.074,50.92z"/>
<line fill="none" stroke="#231F20" stroke-width="1.4133" stroke-miterlimit="10" x1="4.871" y1="42.755" x2="11.186" y2="49.068"/>
<line fill="none" stroke="#231F20" stroke-width="1.4133" stroke-miterlimit="10" x1="6.231" y1="40.155" x2="13.167" y2="47.088"/>
<path fill="none" stroke="#231F20" stroke-width="1.4133" stroke-miterlimit="10" d="M53.739,27.811c0,0.585-0.473,1.061-1.06,1.061
	H38.164c-0.584,0-1.059-0.476-1.059-1.061v-9.438c0-0.585,0.475-1.06,1.059-1.06H52.68c0.587,0,1.06,0.475,1.06,1.06V27.811z"/>
<line fill="none" stroke="#231F20" stroke-width="1.4133" stroke-miterlimit="10" x1="40.377" y1="21.867" x2="40.377" y2="28.171"/>
<line fill="none" stroke="#231F20" stroke-width="1.4133" stroke-miterlimit="10" x1="42.657" y1="20.465" x2="42.657" y2="28.171"/>
<line fill="none" stroke="#231F20" stroke-width="1.4133" stroke-miterlimit="10" x1="45.422" y1="20.465" x2="45.422" y2="28.872"/>
<line fill="none" stroke="#231F20" stroke-width="1.4133" stroke-miterlimit="10" x1="48.117" y1="23.093" x2="48.117" y2="28.872"/>
<polyline fill="#231F20" points="37.891,17.314 40.154,13.812 51.141,13.812 53.389,17.314 "/>
<line fill="none" stroke="#231F20" stroke-width="2.2282" stroke-miterlimit="10" x1="39.585" y1="28.872" x2="39.585" y2="37.023"/>
<line fill="none" stroke="#231F20" stroke-width="2.2282" stroke-miterlimit="10" x1="51.1" y1="28.872" x2="51.1" y2="37.023"/>
<line fill="none" stroke="#231F20" stroke-width="3.3492" stroke-miterlimit="10" x1="47.193" y1="28.872" x2="47.193" y2="37.057"/>
<circle fill="#231F20" cx="46.08" cy="81.417" r="1.142"/>
<rect id="_x3C_Slice_x3E__9_" fill="none" width="92" height="127"/>
</svg>
