<?xml version="1.0" encoding="utf-8"?>
<!-- Generator: Adobe Illustrator 15.0.0, SVG Export Plug-In  -->
<!DOCTYPE svg PUBLIC "-//W3C//DTD SVG 1.1//EN" "http://www.w3.org/Graphics/SVG/1.1/DTD/svg11.dtd" [
	<!ENTITY ns_flows "http://ns.adobe.com/Flows/1.0/">
]>
<svg version="1.1"
	 xmlns="http://www.w3.org/2000/svg" xmlns:xlink="http://www.w3.org/1999/xlink" xmlns:a="http://ns.adobe.com/AdobeSVGViewerExtensions/3.0/"
	 x="0px" y="0px" width="380px" height="381px" viewBox="0 0 380 381" overflow="visible" enable-background="new 0 0 380 381"
	 xml:space="preserve">
<defs>
</defs>
<g id="XMLID_1_">
	<g>
		<path fill="#FFFFFF" d="M379.451,190.465c-15.15-0.213-48.89,13.181-71.736,24.777c5.968-14.185,6.171-34.54,0.454-48.908
			C329.287,177.68,360.235,190.465,379.451,190.465z"/>
		<path fill="#FFFFFF" d="M308.169,166.334c5.717,14.368,5.514,34.724-0.454,48.908c-15.479,7.851-25.956,14.871-22.268,16.271
			c-0.261,4.19,1.71,13.827,5.244,25.53c-6.112,14.215-20.665,28.477-34.917,34.271c-16.474-5.379-28.824-7.821-27.24-4.249
			c-3.148,2.771-8.565,10.999-14.369,21.785c-14.368,5.716-34.724,5.514-48.899-0.454c-7.851-15.479-14.88-25.956-16.28-22.268
			c-4.19-0.261-13.818,1.719-25.521,5.243c-14.214-6.112-28.477-20.674-34.27-34.927c5.378-16.474,7.821-28.833,4.239-27.23
			c-2.781-3.147-10.999-8.564-21.775-14.358c-5.727-14.369-5.514-34.743,0.464-48.919c0,0,0.01,0,0.01-0.01
			c15.479-7.851,25.956-14.87,22.238-16.261c0.271-4.191-1.71-13.818-5.234-25.531c6.104-14.214,20.665-28.477,34.927-34.271
			c16.483,5.389,28.844,7.832,27.23,4.239c3.148-2.781,8.556-10.988,14.34-21.755c14.368-5.736,34.753-5.533,48.938,0.453
			c7.85,15.47,14.87,25.946,16.271,22.258c4.2,0.251,13.827-1.729,25.521-5.253c14.214,6.112,28.477,20.674,34.279,34.937
			c-5.388,16.474-7.831,28.833-4.249,27.23C289.165,155.123,297.383,160.54,308.169,166.334z"/>
		<path fill="#FFFFFF" d="M323.841,56.475c-10.863,10.573-25.241,43.916-33.198,68.27c-5.803-14.263-20.065-28.824-34.279-34.937
			C279.316,82.903,310.255,70.061,323.841,56.475z"/>
		<path fill="#FFFFFF" d="M290.643,124.744c3.67,9.028,3.949,17.941-1.322,24.508c-0.638-0.068-1.285-0.097-1.951-0.097
			c-2.375,0-2.539,1.053-0.976,2.819C282.812,153.577,285.255,141.218,290.643,124.744z"/>
		<path fill="#FFFFFF" d="M289.436,231.648c5.63,6.865,5.243,16.116,1.256,25.396c-3.534-11.703-5.505-21.34-5.244-25.53
			c0.435,0.164,1.072,0.251,1.922,0.251C288.074,231.765,288.76,231.726,289.436,231.648z"/>
		<path fill="#FFFFFF" d="M290.691,257.044c6.904,22.953,19.747,53.892,33.333,67.479c-10.563-10.863-43.897-25.241-68.25-33.208
			C270.026,285.521,284.579,271.259,290.691,257.044z"/>
		<path fill="#FFFFFF" d="M289.32,149.252c8.835,0.869,15.111,7.695,18.849,17.082c-10.786-5.794-19.004-11.211-21.775-14.359
			c0.426-0.184,0.938-0.569,1.546-1.178C288.441,150.295,288.895,149.782,289.32,149.252z"/>
		<path fill="#FFFFFF" d="M307.715,215.242c-3.795,8.99-9.897,15.489-18.279,16.406c-0.405-0.502-0.84-0.976-1.313-1.448
			c-1.68-1.681-2.539-1.043-2.675,1.313C281.759,230.113,292.236,223.093,307.715,215.242z"/>
		<path fill="#FFFFFF" d="M230.977,91.054c6.866-5.62,16.116-5.225,25.387-1.246c-11.694,3.524-21.321,5.504-25.521,5.253
			c0.164-0.435,0.251-1.071,0.251-1.922C231.093,92.425,231.054,91.729,230.977,91.054z"/>
		<path fill="#FFFFFF" d="M255.774,291.314c-9.039,3.679-17.941,3.959-24.518-1.313c0.067-0.637,0.097-1.284,0.097-1.95
			c0-2.376-1.053-2.54-2.819-0.985C226.95,283.493,239.301,285.936,255.774,291.314z"/>
		<path fill="#FFFFFF" d="M229.712,288.62c0.502,0.502,1.014,0.956,1.545,1.381c-0.869,8.846-7.706,15.112-17.092,18.85
			c5.804-10.786,11.221-19.014,14.369-21.785C228.717,287.5,229.104,288.012,229.712,288.62z"/>
		<path fill="#FFFFFF" d="M230.977,91.054c-0.502,0.415-0.984,0.85-1.458,1.322c-1.689,1.69-1.043,2.54,1.323,2.685
			c-1.4,3.688-8.421-6.788-16.271-22.258C223.551,76.588,230.05,82.682,230.977,91.054z"/>
		<path fill="#FFFFFF" d="M214.165,308.851c-11.336,21.118-24.121,52.066-24.121,71.263c0.213-15.141-13.19-48.87-24.778-71.717
			C179.441,314.364,199.797,314.566,214.165,308.851z"/>
		<path fill="#FFFFFF" d="M189.783,1.057c-0.213,15.151,13.19,48.899,24.788,71.746c-14.186-5.986-34.57-6.189-48.938-0.453
			C176.988,51.231,189.783,20.273,189.783,1.057z"/>
		<path fill="#FFFFFF" d="M165.633,72.35c-5.784,10.767-11.191,18.974-14.34,21.755c-0.183-0.425-0.579-0.946-1.178-1.545
			c-0.502-0.502-1.014-0.956-1.545-1.381C149.449,82.344,156.257,76.086,165.633,72.35z"/>
		<path fill="#FFFFFF" d="M151.293,94.104c1.613,3.593-10.747,1.149-27.23-4.239c9.029-3.679,17.941-3.959,24.508,1.313
			c-0.067,0.638-0.097,1.294-0.097,1.96C148.474,95.515,149.526,95.669,151.293,94.104z"/>
		<path fill="#FFFFFF" d="M150.299,288.804c1.689-1.68,1.053-2.539-1.313-2.675c1.4-3.688,8.43,6.788,16.28,22.268
			c-8.989-3.795-15.498-9.897-16.415-18.279C149.353,289.712,149.825,289.277,150.299,288.804z"/>
		<path fill="#FFFFFF" d="M148.734,288.051c0,0.705,0.039,1.391,0.116,2.066c-6.866,5.63-16.116,5.243-25.387,1.255
			c11.703-3.524,21.331-5.504,25.521-5.243C148.821,286.563,148.734,287.201,148.734,288.051z"/>
		<path fill="#FFFFFF" d="M94.37,149.667c3.718,1.391-6.76,8.41-22.238,16.261c3.775-8.98,9.878-15.479,18.25-16.396
			c0.405,0.503,0.84,0.976,1.313,1.449C93.375,152.66,94.234,152.022,94.37,149.667z"/>
		<path fill="#FFFFFF" d="M89.136,124.136c3.524,11.713,5.505,21.34,5.234,25.531c-0.435-0.164-1.072-0.251-1.912-0.251
			c-0.705,0-1.4,0.038-2.076,0.115C84.752,142.666,85.139,133.415,89.136,124.136z"/>
		<path fill="#FFFFFF" d="M93.434,229.215c3.582-1.603,1.139,10.757-4.239,27.23c-3.68-9.028-3.959-17.941,1.312-24.507
			c0.638,0.067,1.285,0.096,1.951,0.096C94.833,232.034,94.987,230.982,93.434,229.215z"/>
		<path fill="#FFFFFF" d="M93.434,229.215c-0.426,0.184-0.947,0.579-1.546,1.179c-0.502,0.502-0.955,1.014-1.381,1.545
			c-8.845-0.869-15.111-7.696-18.849-17.082C82.435,220.65,90.652,226.067,93.434,229.215z"/>
		<path fill="#FFFFFF" d="M124.062,89.865c-14.262,5.794-28.823,20.057-34.927,34.271c-6.904-22.953-19.757-53.892-33.333-67.469
			C66.366,67.521,99.71,81.909,124.062,89.865z"/>
		<path fill="#FFFFFF" d="M89.194,256.445c5.793,14.253,20.056,28.814,34.27,34.927c-22.953,6.904-53.892,19.747-67.478,33.334
			C66.84,314.132,81.228,280.789,89.194,256.445z"/>
		<path fill="#FFFFFF" d="M72.122,165.938c-5.978,14.176-6.19,34.55-0.464,48.919C50.54,203.51,19.592,190.726,0.376,190.726
			C15.526,190.938,49.275,177.525,72.122,165.938z"/>
	</g>
	<g>
		<path fill="none" stroke="#231F20" stroke-width="0.7395" stroke-miterlimit="10" d="M148.57,91.179
			c-0.067,0.638-0.097,1.294-0.097,1.96c0,2.376,1.053,2.53,2.819,0.966c3.148-2.781,8.556-10.988,14.34-21.755
			c11.355-21.118,24.15-52.076,24.15-71.293c-0.213,15.151,13.19,48.899,24.788,71.746c7.85,15.47,14.87,25.946,16.271,22.258
			c0.164-0.435,0.251-1.071,0.251-1.922c0-0.714-0.039-1.409-0.116-2.085c-0.927-8.372-7.426-14.466-16.405-18.251
			c-14.186-5.986-34.57-6.189-48.938-0.453C156.257,76.086,149.449,82.344,148.57,91.179z"/>
		<path fill="none" stroke="#231F20" stroke-width="0.7395" stroke-miterlimit="10" d="M231.257,290.001
			c0.067-0.637,0.097-1.284,0.097-1.95c0-2.376-1.053-2.54-2.819-0.985c-3.148,2.771-8.565,10.999-14.369,21.785
			c-11.336,21.118-24.121,52.066-24.121,71.263c0.213-15.141-13.19-48.87-24.778-71.717c-7.851-15.479-14.88-25.956-16.28-22.268
			c-0.164,0.435-0.251,1.072-0.251,1.922c0,0.705,0.039,1.391,0.116,2.066c0.917,8.382,7.426,14.484,16.415,18.279
			c14.176,5.968,34.531,6.17,48.899,0.454C223.551,305.113,230.388,298.847,231.257,290.001z"/>
		<path fill="none" stroke="#231F20" stroke-width="0.7395" stroke-miterlimit="10" d="M230.977,91.054
			c-0.502,0.415-0.984,0.85-1.458,1.322c-1.689,1.69-1.043,2.54,1.323,2.685c4.2,0.251,13.827-1.729,25.521-5.253
			c22.953-6.904,53.892-19.747,67.478-33.333c-10.863,10.573-25.241,43.916-33.198,68.27c-5.388,16.474-7.831,28.833-4.249,27.23
			c0.426-0.184,0.938-0.569,1.546-1.178c0.502-0.502,0.955-1.015,1.381-1.545c5.271-6.566,4.992-15.479,1.322-24.508
			c-5.803-14.263-20.065-28.824-34.279-34.937C247.093,85.829,237.843,85.434,230.977,91.054z"/>
		<path fill="none" stroke="#231F20" stroke-width="0.7395" stroke-miterlimit="10" d="M148.851,290.117
			c0.502-0.405,0.975-0.84,1.448-1.313c1.689-1.68,1.053-2.539-1.313-2.675c-4.19-0.261-13.818,1.719-25.521,5.243
			c-22.953,6.904-53.892,19.747-67.478,33.334c10.854-10.574,25.241-43.917,33.208-68.261c5.378-16.474,7.821-28.833,4.239-27.23
			c-0.426,0.184-0.947,0.579-1.546,1.179c-0.502,0.502-0.955,1.014-1.381,1.545c-5.271,6.565-4.992,15.479-1.312,24.507
			c5.793,14.253,20.056,28.814,34.27,34.927C132.734,295.36,141.984,295.747,148.851,290.117z"/>
		<path fill="none" stroke="#231F20" stroke-width="0.7395" stroke-miterlimit="10" d="M289.32,149.252
			c-0.638-0.068-1.285-0.097-1.951-0.097c-2.375,0-2.539,1.053-0.976,2.819c2.771,3.148,10.989,8.565,21.775,14.359
			c21.118,11.346,52.066,24.131,71.282,24.131c-15.15-0.213-48.89,13.181-71.736,24.777c-15.479,7.851-25.956,14.871-22.268,16.271
			c0.435,0.164,1.072,0.251,1.922,0.251c0.705,0,1.391-0.039,2.066-0.116c8.382-0.917,14.484-7.416,18.279-16.406
			c5.968-14.185,6.171-34.54,0.454-48.908C304.432,156.947,298.155,150.121,289.32,149.252z"/>
		<path fill="none" stroke="#231F20" stroke-width="0.7395" stroke-miterlimit="10" d="M72.122,165.938
			c-5.978,14.176-6.19,34.55-0.464,48.919c3.737,9.386,10.004,16.213,18.849,17.082c0.638,0.067,1.285,0.096,1.951,0.096
			c2.375,0,2.529-1.052,0.976-2.819c-2.781-3.147-10.999-8.564-21.775-14.358C50.54,203.51,19.592,190.726,0.376,190.726
			C15.526,190.938,49.275,177.525,72.122,165.938"/>
		<path fill="none" stroke="#231F20" stroke-width="0.7395" stroke-miterlimit="10" d="M72.132,165.928
			c15.479-7.851,25.956-14.87,22.238-16.261c-0.435-0.164-1.072-0.251-1.912-0.251c-0.705,0-1.4,0.038-2.076,0.115
			C82.01,150.449,75.907,156.947,72.132,165.928"/>
		<path fill="none" stroke="#231F20" stroke-width="0.7395" stroke-miterlimit="10" d="M72.132,165.928c0,0.01-0.01,0.01-0.01,0.01"
			/>
		<path fill="none" stroke="#231F20" stroke-width="0.7395" stroke-miterlimit="10" d="M289.436,231.648
			c-0.405-0.502-0.84-0.976-1.313-1.448c-1.68-1.681-2.539-1.043-2.675,1.313c-0.261,4.19,1.71,13.827,5.244,25.53
			c6.904,22.953,19.747,53.892,33.333,67.479c-10.563-10.863-43.897-25.241-68.25-33.208c-16.474-5.379-28.824-7.821-27.24-4.249
			c0.183,0.435,0.569,0.946,1.178,1.555c0.502,0.502,1.014,0.956,1.545,1.381c6.576,5.272,15.479,4.992,24.518,1.313
			c14.252-5.794,28.805-20.056,34.917-34.271C294.679,247.765,295.065,238.514,289.436,231.648z"/>
		<path fill="none" stroke="#231F20" stroke-width="0.7395" stroke-miterlimit="10" d="M90.382,149.531
			c0.405,0.503,0.84,0.976,1.313,1.449c1.68,1.68,2.539,1.042,2.675-1.313c0.271-4.191-1.71-13.818-5.234-25.531
			c-6.904-22.953-19.757-53.892-33.333-67.469c10.563,10.854,43.907,25.242,68.26,33.198c16.483,5.389,28.844,7.832,27.23,4.239
			c-0.183-0.425-0.579-0.946-1.178-1.545c-0.502-0.502-1.014-0.956-1.545-1.381c-6.566-5.272-15.479-4.992-24.508-1.313
			c-14.262,5.794-28.823,20.057-34.927,34.271C85.139,133.415,84.752,142.666,90.382,149.531z"/>
	</g>
</g>
<path fill="#231F20" d="M189.899,19.047c0,0-9.075,36.588-18.73,48.703c0,0,17.533-7.164,37.529,0
	C200.718,56.822,189.899,19.047,189.899,19.047z"/>
<path fill="#FFFFFF" d="M181.633,48.25c0,2.078,6.188,3.764,8.267,3.764s8.266-1.686,8.266-3.764s-6.188-3.764-8.266-3.764
	S181.633,46.172,181.633,48.25z"/>
<circle fill="#231F20" cx="189.899" cy="48.25" r="3.558"/>
<circle fill="#FFFFFF" cx="191.018" cy="46.939" r="1.311"/>
<path fill="#FFFFFF" d="M185.421,40.551c0,1.127,3.353,2.039,4.479,2.039c1.125,0,4.478-0.912,4.478-2.039
	c0-1.125-3.353-2.039-4.478-2.039C188.773,38.512,185.421,39.426,185.421,40.551z"/>
<circle fill="#231F20" cx="189.899" cy="40.551" r="1.928"/>
<circle fill="#FFFFFF" cx="190.506" cy="39.842" r="0.71"/>
<g>
	<defs>
		<path id="SVGID_8_" d="M189.864,19.047c0,0-9.076,36.588-18.73,48.703c0,0,17.533-7.164,37.53,0
			C200.684,56.822,189.864,19.047,189.864,19.047z"/>
	</defs>
	<clipPath id="SVGID_9_">
		<use xlink:href="#SVGID_8_"  overflow="visible"/>
	</clipPath>
	<g clip-path="url(#SVGID_9_)">
		<g>
			<path fill="none" stroke="#FFFFFF" stroke-width="0.1552" stroke-miterlimit="10" d="M204.663,67.234
				c-0.968,1.566-0.483,3.623,1.084,4.592c1.566,0.969,3.622,0.484,4.592-1.084c0.968-1.566,2.227-9.945,2.227-9.945
				S205.632,65.668,204.663,67.234z"/>
			<path fill="none" stroke="#FFFFFF" stroke-width="0.1552" stroke-miterlimit="10" d="M205,68.662
				c-0.667,1.08-0.333,2.496,0.747,3.164c1.079,0.668,2.495,0.334,3.163-0.746c0.667-1.08,1.533-6.854,1.533-6.854
				S205.668,67.584,205,68.662z"/>
			<circle fill="none" stroke="#FFFFFF" stroke-width="0.1552" stroke-miterlimit="10" cx="205.57" cy="72.112" r="2.298"/>
		</g>
		<g>
			<path fill="none" stroke="#FFFFFF" stroke-width="0.1552" stroke-miterlimit="10" d="M201.885,66.02
				c-0.8,1.66-0.103,3.652,1.558,4.453c1.661,0.799,3.654,0.1,4.453-1.559c0.8-1.66,1.173-10.127,1.173-10.127
				S202.683,64.359,201.885,66.02z"/>
			<path fill="none" stroke="#FFFFFF" stroke-width="0.1552" stroke-miterlimit="10" d="M202.369,67.404
				c-0.551,1.143-0.07,2.518,1.073,3.066c1.144,0.553,2.518,0.072,3.068-1.072c0.55-1.145,0.807-6.977,0.807-6.977
				S202.92,66.26,202.369,67.404z"/>
			<circle fill="none" stroke="#FFFFFF" stroke-width="0.1552" stroke-miterlimit="10" cx="203.297" cy="70.776" r="2.298"/>
		</g>
		<g>
			<path fill="none" stroke="#FFFFFF" stroke-width="0.1552" stroke-miterlimit="10" d="M198.992,65.102
				c-0.621,1.734,0.283,3.645,2.019,4.266c1.732,0.619,3.644-0.283,4.265-2.018s0.103-10.193,0.103-10.193
				S199.614,63.367,198.992,65.102z"/>
			<path fill="none" stroke="#FFFFFF" stroke-width="0.1552" stroke-miterlimit="10" d="M199.619,66.428
				c-0.426,1.195,0.194,2.512,1.391,2.938c1.195,0.43,2.511-0.193,2.938-1.389c0.429-1.195,0.073-7.021,0.073-7.021
				S200.048,65.232,199.619,66.428z"/>
			<circle fill="none" stroke="#FFFFFF" stroke-width="0.1552" stroke-miterlimit="10" cx="200.897" cy="69.685" r="2.298"/>
		</g>
		<g>
			<path fill="none" stroke="#FFFFFF" stroke-width="0.1552" stroke-miterlimit="10" d="M196.021,64.492
				c-0.437,1.791,0.663,3.594,2.454,4.029c1.79,0.438,3.595-0.662,4.029-2.453c0.437-1.789-0.966-10.146-0.966-10.146
				S196.456,62.701,196.021,64.492z"/>
			<path fill="none" stroke="#FFFFFF" stroke-width="0.1552" stroke-miterlimit="10" d="M196.784,65.746
				c-0.301,1.232,0.456,2.475,1.689,2.775s2.477-0.455,2.776-1.689c0.301-1.232-0.665-6.99-0.665-6.99
				S197.084,64.512,196.784,65.746z"/>
			<circle fill="none" stroke="#FFFFFF" stroke-width="0.1552" stroke-miterlimit="10" cx="198.394" cy="68.851" r="2.299"/>
		</g>
		<g>
			<path fill="none" stroke="#FFFFFF" stroke-width="0.1552" stroke-miterlimit="10" d="M193.001,64.197
				c-0.245,1.826,1.038,3.506,2.862,3.75c1.827,0.246,3.506-1.035,3.752-2.861c0.245-1.826-2.024-9.99-2.024-9.99
				S193.247,62.371,193.001,64.197z"/>
			<path fill="none" stroke="#FFFFFF" stroke-width="0.1552" stroke-miterlimit="10" d="M193.892,65.365
				c-0.169,1.258,0.714,2.414,1.972,2.582c1.258,0.17,2.415-0.713,2.585-1.971c0.169-1.258-1.395-6.881-1.395-6.881
				S194.062,64.107,193.892,65.365z"/>
			<circle fill="none" stroke="#FFFFFF" stroke-width="0.1552" stroke-miterlimit="10" cx="195.819" cy="68.282" r="2.298"/>
		</g>
		<g>
			<path fill="none" stroke="#FFFFFF" stroke-width="0.1552" stroke-miterlimit="10" d="M189.969,64.221
				c-0.053,1.842,1.397,3.379,3.239,3.432s3.377-1.398,3.43-3.24c0.054-1.842-3.059-9.723-3.059-9.723
				S190.021,62.379,189.969,64.221z"/>
			<path fill="none" stroke="#FFFFFF" stroke-width="0.1552" stroke-miterlimit="10" d="M190.976,65.289
				c-0.035,1.268,0.965,2.326,2.232,2.363c1.268,0.035,2.325-0.963,2.363-2.232c0.036-1.268-2.107-6.697-2.107-6.697
				S191.012,64.02,190.976,65.289z"/>
			<circle fill="none" stroke="#FFFFFF" stroke-width="0.1552" stroke-miterlimit="10" cx="193.198" cy="67.988" r="2.299"/>
		</g>
		<g>
			<path fill="none" stroke="#FFFFFF" stroke-width="0.1552" stroke-miterlimit="10" d="M186.955,64.562
				c0.14,1.838,1.743,3.213,3.581,3.072c1.835-0.141,3.211-1.744,3.07-3.58c-0.14-1.838-4.062-9.35-4.062-9.35
				S186.813,62.727,186.955,64.562z"/>
			<path fill="none" stroke="#FFFFFF" stroke-width="0.1552" stroke-miterlimit="10" d="M188.067,65.52
				c0.099,1.266,1.203,2.211,2.469,2.115s2.213-1.201,2.115-2.467c-0.097-1.266-2.799-6.441-2.799-6.441
				S187.972,64.254,188.067,65.52z"/>
			<circle fill="none" stroke="#FFFFFF" stroke-width="0.1552" stroke-miterlimit="10" cx="190.561" cy="67.971" r="2.298"/>
		</g>
		<g>
			<path fill="none" stroke="#FFFFFF" stroke-width="0.1552" stroke-miterlimit="10" d="M183.993,65.219
				c0.332,1.812,2.072,3.012,3.883,2.68c1.812-0.334,3.012-2.072,2.68-3.883c-0.334-1.814-5.021-8.873-5.021-8.873
				S183.659,63.406,183.993,65.219z"/>
			<path fill="none" stroke="#FFFFFF" stroke-width="0.1552" stroke-miterlimit="10" d="M185.201,66.053
				c0.229,1.248,1.426,2.074,2.675,1.846c1.248-0.229,2.075-1.428,1.846-2.676c-0.229-1.248-3.458-6.111-3.458-6.111
				S184.972,64.803,185.201,66.053z"/>
			<circle fill="none" stroke="#FFFFFF" stroke-width="0.1552" stroke-miterlimit="10" cx="187.937" cy="68.229" r="2.298"/>
		</g>
		<g>
			<path fill="none" stroke="#FFFFFF" stroke-width="0.1552" stroke-miterlimit="10" d="M181.116,66.182
				c0.521,1.768,2.375,2.777,4.142,2.256c1.769-0.52,2.778-2.373,2.259-4.143c-0.521-1.766-5.924-8.295-5.924-8.295
				S180.595,64.414,181.116,66.182z"/>
			<path fill="none" stroke="#FFFFFF" stroke-width="0.1552" stroke-miterlimit="10" d="M182.405,66.883
				c0.358,1.219,1.636,1.916,2.853,1.555c1.218-0.357,1.915-1.635,1.556-2.854c-0.359-1.217-4.08-5.715-4.08-5.715
				S182.046,65.666,182.405,66.883z"/>
			<circle fill="none" stroke="#FFFFFF" stroke-width="0.1552" stroke-miterlimit="10" cx="185.354" cy="68.763" r="2.298"/>
		</g>
		<g>
			<path fill="none" stroke="#FFFFFF" stroke-width="0.1552" stroke-miterlimit="10" d="M178.356,67.439
				c0.702,1.703,2.652,2.514,4.355,1.811s2.515-2.652,1.811-4.355c-0.702-1.703-6.759-7.631-6.759-7.631
				S177.652,65.738,178.356,67.439z"/>
			<path fill="none" stroke="#FFFFFF" stroke-width="0.1552" stroke-miterlimit="10" d="M179.712,68.004
				c0.482,1.174,1.828,1.732,3,1.246c1.174-0.482,1.732-1.828,1.247-3c-0.484-1.174-4.655-5.256-4.655-5.256
				S179.228,66.83,179.712,68.004z"/>
			<circle fill="none" stroke="#FFFFFF" stroke-width="0.1552" stroke-miterlimit="10" cx="182.842" cy="69.562" r="2.298"/>
		</g>
		<g>
			<path fill="none" stroke="#FFFFFF" stroke-width="0.1552" stroke-miterlimit="10" d="M175.743,68.982
				c0.877,1.619,2.903,2.221,4.522,1.344c1.62-0.879,2.222-2.902,1.345-4.523c-0.878-1.619-7.523-6.879-7.523-6.879
				S174.864,67.361,175.743,68.982z"/>
			<path fill="none" stroke="#FFFFFF" stroke-width="0.1552" stroke-miterlimit="10" d="M177.149,69.4
				c0.605,1.115,2,1.529,3.116,0.926c1.116-0.605,1.53-2,0.926-3.115c-0.605-1.117-5.182-4.74-5.182-4.74
				S176.546,68.283,177.149,69.4z"/>
			<circle fill="none" stroke="#FFFFFF" stroke-width="0.1552" stroke-miterlimit="10" cx="180.426" cy="70.622" r="2.298"/>
		</g>
		<g>
			<path fill="none" stroke="#FFFFFF" stroke-width="0.1552" stroke-miterlimit="10" d="M173.308,70.789
				c1.041,1.518,3.118,1.904,4.637,0.861c1.52-1.043,1.905-3.119,0.863-4.639c-1.044-1.518-8.203-6.051-8.203-6.051
				S172.265,69.27,173.308,70.789z"/>
			<path fill="none" stroke="#FFFFFF" stroke-width="0.1552" stroke-miterlimit="10" d="M174.749,71.057
				c0.719,1.047,2.15,1.312,3.195,0.594c1.047-0.717,1.312-2.148,0.595-3.195c-0.72-1.047-5.651-4.168-5.651-4.168
				S174.031,70.012,174.749,71.057z"/>
			<circle fill="none" stroke="#FFFFFF" stroke-width="0.1552" stroke-miterlimit="10" cx="178.136" cy="71.929" r="2.299"/>
		</g>
		<g>
			<path fill="none" stroke="#FFFFFF" stroke-width="0.1552" stroke-miterlimit="10" d="M171.073,72.842
				c1.195,1.4,3.303,1.566,4.701,0.371c1.402-1.197,1.568-3.303,0.374-4.705c-1.196-1.4-8.792-5.158-8.792-5.158
				S169.876,71.439,171.073,72.842z"/>
			<path fill="none" stroke="#FFFFFF" stroke-width="0.1552" stroke-miterlimit="10" d="M172.536,72.955
				c0.824,0.967,2.275,1.082,3.238,0.258c0.967-0.824,1.081-2.275,0.258-3.24c-0.825-0.967-6.057-3.555-6.057-3.555
				S171.712,71.992,172.536,72.955z"/>
			<circle fill="none" stroke="#FFFFFF" stroke-width="0.1552" stroke-miterlimit="10" cx="175.995" cy="73.469" r="2.298"/>
		</g>
	</g>
</g>
<path fill="#231F20" d="M189.934,362.107c0,0,9.076-36.588,18.731-48.703c0,0-17.533,7.164-37.531,0
	C179.115,324.332,189.934,362.107,189.934,362.107z"/>
<path fill="#FFFFFF" d="M198.2,332.906c0-2.08-6.189-3.764-8.266-3.764c-2.079,0-8.268,1.684-8.268,3.764
	c0,2.078,6.188,3.764,8.268,3.764C192.011,336.67,198.2,334.984,198.2,332.906z"/>
<circle fill="#231F20" cx="189.934" cy="332.906" r="3.558"/>
<circle fill="#FFFFFF" cx="188.815" cy="334.217" r="1.311"/>
<path fill="#FFFFFF" d="M194.412,340.604c0-1.125-3.353-2.039-4.478-2.039c-1.127,0-4.479,0.914-4.479,2.039
	c0,1.127,3.352,2.039,4.479,2.039C191.06,342.643,194.412,341.73,194.412,340.604z"/>
<circle fill="#231F20" cx="189.934" cy="340.604" r="1.927"/>
<circle fill="#FFFFFF" cx="189.328" cy="341.314" r="0.71"/>
<g>
	<defs>
		<path id="SVGID_7_" d="M189.969,362.107c0,0,9.075-36.588,18.729-48.703c0,0-17.531,7.164-37.529,0
			C179.149,324.332,189.969,362.107,189.969,362.107z"/>
	</defs>
	<clipPath id="SVGID_10_">
		<use xlink:href="#SVGID_7_"  overflow="visible"/>
	</clipPath>
	<g clip-path="url(#SVGID_10_)">
		<g>
			<path fill="none" stroke="#FFFFFF" stroke-width="0.1552" stroke-miterlimit="10" d="M175.169,313.922
				c0.969-1.568,0.484-3.623-1.083-4.594c-1.566-0.969-3.622-0.482-4.591,1.086c-0.969,1.566-2.229,9.945-2.229,9.945
				S174.201,315.488,175.169,313.922z"/>
			<path fill="none" stroke="#FFFFFF" stroke-width="0.1552" stroke-miterlimit="10" d="M174.833,312.494
				c0.668-1.082,0.332-2.498-0.747-3.166c-1.079-0.666-2.495-0.334-3.163,0.748c-0.668,1.08-1.533,6.852-1.533,6.852
				S174.165,313.572,174.833,312.494z"/>
			<circle fill="none" stroke="#FFFFFF" stroke-width="0.1552" stroke-miterlimit="10" cx="174.263" cy="309.043" r="2.298"/>
		</g>
		<g>
			<path fill="none" stroke="#FFFFFF" stroke-width="0.1552" stroke-miterlimit="10" d="M177.948,315.135
				c0.8-1.658,0.102-3.652-1.558-4.451c-1.661-0.801-3.653-0.102-4.452,1.559c-0.801,1.66-1.174,10.125-1.174,10.125
				S177.151,316.797,177.948,315.135z"/>
			<path fill="none" stroke="#FFFFFF" stroke-width="0.1552" stroke-miterlimit="10" d="M177.464,313.752
				c0.551-1.145,0.07-2.518-1.073-3.068s-2.518-0.07-3.068,1.074c-0.55,1.143-0.806,6.975-0.806,6.975
				S176.913,314.895,177.464,313.752z"/>
			<circle fill="none" stroke="#FFFFFF" stroke-width="0.1552" stroke-miterlimit="10" cx="176.536" cy="310.38" r="2.298"/>
		</g>
		<g>
			<path fill="none" stroke="#FFFFFF" stroke-width="0.1552" stroke-miterlimit="10" d="M180.841,316.055
				c0.621-1.736-0.283-3.645-2.018-4.268c-1.734-0.619-3.645,0.283-4.266,2.02c-0.621,1.734-0.104,10.191-0.104,10.191
				S180.22,317.787,180.841,316.055z"/>
			<path fill="none" stroke="#FFFFFF" stroke-width="0.1552" stroke-miterlimit="10" d="M180.214,314.727
				c0.426-1.195-0.194-2.51-1.391-2.938c-1.195-0.428-2.511,0.193-2.938,1.391c-0.429,1.193-0.073,7.02-0.073,7.02
				S179.786,315.922,180.214,314.727z"/>
			<circle fill="none" stroke="#FFFFFF" stroke-width="0.1552" stroke-miterlimit="10" cx="178.937" cy="311.472" r="2.298"/>
		</g>
		<g>
			<path fill="none" stroke="#FFFFFF" stroke-width="0.1552" stroke-miterlimit="10" d="M183.812,316.664
				c0.438-1.791-0.662-3.596-2.453-4.031c-1.79-0.436-3.595,0.664-4.029,2.453c-0.437,1.791,0.965,10.146,0.965,10.146
				S183.378,318.455,183.812,316.664z"/>
			<path fill="none" stroke="#FFFFFF" stroke-width="0.1552" stroke-miterlimit="10" d="M183.05,315.41
				c0.301-1.234-0.457-2.477-1.69-2.777c-1.233-0.299-2.477,0.457-2.776,1.689c-0.301,1.234,0.665,6.992,0.665,6.992
				S182.749,316.643,183.05,315.41z"/>
			<circle fill="none" stroke="#FFFFFF" stroke-width="0.1552" stroke-miterlimit="10" cx="181.439" cy="312.306" r="2.299"/>
		</g>
		<g>
			<path fill="none" stroke="#FFFFFF" stroke-width="0.1552" stroke-miterlimit="10" d="M186.831,316.957
				c0.246-1.824-1.037-3.504-2.861-3.75c-1.826-0.246-3.506,1.037-3.752,2.861c-0.244,1.826,2.024,9.99,2.024,9.99
				S186.585,318.783,186.831,316.957z"/>
			<path fill="none" stroke="#FFFFFF" stroke-width="0.1552" stroke-miterlimit="10" d="M185.941,315.791
				c0.169-1.26-0.714-2.414-1.972-2.584c-1.258-0.168-2.415,0.715-2.585,1.973c-0.169,1.258,1.395,6.881,1.395,6.881
				S185.771,317.049,185.941,315.791z"/>
			<circle fill="none" stroke="#FFFFFF" stroke-width="0.1552" stroke-miterlimit="10" cx="184.014" cy="312.873" r="2.298"/>
		</g>
		<g>
			<path fill="none" stroke="#FFFFFF" stroke-width="0.1552" stroke-miterlimit="10" d="M189.864,316.936
				c0.053-1.844-1.397-3.379-3.239-3.432s-3.377,1.398-3.43,3.24c-0.054,1.842,3.058,9.723,3.058,9.723
				S189.812,318.775,189.864,316.936z"/>
			<path fill="none" stroke="#FFFFFF" stroke-width="0.1552" stroke-miterlimit="10" d="M188.856,315.867
				c0.037-1.27-0.963-2.326-2.231-2.363c-1.268-0.037-2.325,0.963-2.363,2.232c-0.036,1.268,2.108,6.697,2.108,6.697
				S188.821,317.137,188.856,315.867z"/>
			<circle fill="none" stroke="#FFFFFF" stroke-width="0.1552" stroke-miterlimit="10" cx="186.635" cy="313.167" r="2.299"/>
		</g>
		<g>
			<path fill="none" stroke="#FFFFFF" stroke-width="0.1552" stroke-miterlimit="10" d="M192.878,316.592
				c-0.14-1.838-1.744-3.213-3.58-3.07c-1.836,0.141-3.213,1.744-3.072,3.58c0.141,1.838,4.062,9.348,4.062,9.348
				S193.02,318.428,192.878,316.592z"/>
			<path fill="none" stroke="#FFFFFF" stroke-width="0.1552" stroke-miterlimit="10" d="M191.765,315.637
				c-0.098-1.266-1.201-2.213-2.467-2.115c-1.266,0.096-2.214,1.201-2.117,2.465c0.098,1.268,2.799,6.441,2.799,6.441
				S191.861,316.902,191.765,315.637z"/>
			<circle fill="none" stroke="#FFFFFF" stroke-width="0.1552" stroke-miterlimit="10" cx="189.272" cy="313.186" r="2.298"/>
		</g>
		<g>
			<path fill="none" stroke="#FFFFFF" stroke-width="0.1552" stroke-miterlimit="10" d="M195.84,315.936
				c-0.332-1.812-2.071-3.01-3.882-2.678c-1.812,0.332-3.012,2.07-2.68,3.883c0.333,1.812,5.02,8.871,5.02,8.871
				S196.174,317.75,195.84,315.936z"/>
			<path fill="none" stroke="#FFFFFF" stroke-width="0.1552" stroke-miterlimit="10" d="M194.632,315.104
				c-0.229-1.25-1.426-2.074-2.674-1.846c-1.249,0.229-2.076,1.426-1.847,2.676c0.228,1.248,3.458,6.111,3.458,6.111
				S194.862,316.352,194.632,315.104z"/>
			<circle fill="none" stroke="#FFFFFF" stroke-width="0.1552" stroke-miterlimit="10" cx="191.896" cy="312.927" r="2.298"/>
		</g>
		<g>
			<path fill="none" stroke="#FFFFFF" stroke-width="0.1552" stroke-miterlimit="10" d="M198.717,314.973
				c-0.521-1.766-2.375-2.777-4.142-2.256c-1.77,0.52-2.779,2.375-2.258,4.143c0.52,1.768,5.923,8.297,5.923,8.297
				S199.238,316.74,198.717,314.973z"/>
			<path fill="none" stroke="#FFFFFF" stroke-width="0.1552" stroke-miterlimit="10" d="M197.428,314.271
				c-0.358-1.219-1.636-1.914-2.853-1.555c-1.218,0.357-1.915,1.637-1.556,2.855c0.359,1.215,4.08,5.713,4.08,5.713
				S197.787,315.488,197.428,314.271z"/>
			<circle fill="none" stroke="#FFFFFF" stroke-width="0.1552" stroke-miterlimit="10" cx="194.479" cy="312.394" r="2.298"/>
		</g>
		<g>
			<path fill="none" stroke="#FFFFFF" stroke-width="0.1552" stroke-miterlimit="10" d="M201.478,313.715
				c-0.703-1.703-2.654-2.514-4.357-1.811c-1.703,0.705-2.514,2.654-1.811,4.357c0.703,1.701,6.76,7.629,6.76,7.629
				S202.181,315.418,201.478,313.715z"/>
			<path fill="none" stroke="#FFFFFF" stroke-width="0.1552" stroke-miterlimit="10" d="M200.121,313.152
				c-0.482-1.174-1.827-1.732-3.001-1.248c-1.173,0.484-1.731,1.828-1.246,3.002c0.484,1.172,4.655,5.256,4.655,5.256
				S200.605,314.324,200.121,313.152z"/>
			<path fill="none" stroke="#FFFFFF" stroke-width="0.1552" stroke-miterlimit="10" d="M194.868,312.471
				c0.483,1.174,1.827,1.73,3,1.246c1.172-0.484,1.732-1.828,1.248-3c-0.485-1.176-1.829-1.732-3.002-1.248
				C194.941,309.951,194.383,311.297,194.868,312.471z"/>
		</g>
		<g>
			<path fill="none" stroke="#FFFFFF" stroke-width="0.1552" stroke-miterlimit="10" d="M204.089,312.174
				c-0.877-1.619-2.902-2.223-4.521-1.344c-1.62,0.877-2.222,2.902-1.345,4.523c0.878,1.619,7.523,6.879,7.523,6.879
				S204.968,313.793,204.089,312.174z"/>
			<path fill="none" stroke="#FFFFFF" stroke-width="0.1552" stroke-miterlimit="10" d="M202.684,311.756
				c-0.605-1.117-2-1.531-3.116-0.926c-1.116,0.604-1.53,2-0.926,3.115c0.605,1.117,5.182,4.738,5.182,4.738
				S203.288,312.871,202.684,311.756z"/>
			<path fill="none" stroke="#FFFFFF" stroke-width="0.1552" stroke-miterlimit="10" d="M197.387,311.629
				c0.604,1.115,1.998,1.531,3.114,0.926s1.53-2,0.926-3.117c-0.604-1.113-1.999-1.529-3.114-0.926
				C197.197,309.117,196.781,310.514,197.387,311.629z"/>
		</g>
		<g>
			<path fill="none" stroke="#FFFFFF" stroke-width="0.1552" stroke-miterlimit="10" d="M206.526,310.365
				c-1.042-1.518-3.119-1.904-4.638-0.859c-1.52,1.043-1.905,3.117-0.863,4.639c1.044,1.518,8.203,6.051,8.203,6.051
				S207.569,311.885,206.526,310.365z"/>
			<path fill="none" stroke="#FFFFFF" stroke-width="0.1552" stroke-miterlimit="10" d="M205.084,310.098
				c-0.72-1.047-2.15-1.312-3.195-0.594c-1.046,0.719-1.313,2.15-0.595,3.195c0.72,1.047,5.65,4.17,5.65,4.17
				S205.802,311.145,205.084,310.098z"/>
			<circle fill="none" stroke="#FFFFFF" stroke-width="0.1552" stroke-miterlimit="10" cx="201.698" cy="309.227" r="2.298"/>
		</g>
		<g>
			<path fill="none" stroke="#FFFFFF" stroke-width="0.1552" stroke-miterlimit="10" d="M208.76,308.314
				c-1.195-1.402-3.303-1.568-4.701-0.371c-1.402,1.195-1.568,3.301-0.374,4.703c1.196,1.4,8.793,5.16,8.793,5.16
				S209.957,309.715,208.76,308.314z"/>
			<path fill="none" stroke="#FFFFFF" stroke-width="0.1552" stroke-miterlimit="10" d="M207.297,308.199
				c-0.824-0.965-2.275-1.08-3.238-0.256c-0.967,0.824-1.081,2.275-0.258,3.24c0.825,0.965,6.057,3.555,6.057,3.555
				S208.121,309.164,207.297,308.199z"/>
			<path fill="none" stroke="#FFFFFF" stroke-width="0.1552" stroke-miterlimit="10" d="M202.09,309.18
				c0.824,0.965,2.274,1.078,3.24,0.256c0.966-0.826,1.08-2.275,0.256-3.242c-0.824-0.963-2.274-1.078-3.239-0.254
				C201.381,306.764,201.266,308.215,202.09,309.18z"/>
		</g>
	</g>
</g>
<path fill="#231F20" d="M311.194,69.275c0,0-32.288,19.455-47.683,21.193c0,0,17.464,7.332,26.538,26.539
	C292.133,103.637,311.194,69.275,311.194,69.275z"/>
<path fill="#FFFFFF" d="M284.7,84.08c-1.47,1.469,1.715,7.037,3.185,8.506c1.469,1.469,7.036,4.652,8.506,3.184
	c1.469-1.469-1.715-7.037-3.184-8.506C291.737,85.795,286.169,82.609,284.7,84.08z"/>
<circle fill="#231F20" cx="290.545" cy="89.925" r="3.558"/>
<circle fill="#FFFFFF" cx="292.263" cy="89.789" r="1.311"/>
<path fill="#FFFFFF" d="M292.823,81.314c-0.796,0.797,0.929,3.812,1.725,4.607c0.796,0.797,3.812,2.521,4.607,1.725
	c0.797-0.795-0.929-3.811-1.725-4.607C296.635,82.244,293.619,80.518,292.823,81.314z"/>
<circle fill="#231F20" cx="295.989" cy="84.48" r="1.928"/>
<path fill="#FFFFFF" d="M297.422,84.91c-0.277,0.275-0.727,0.275-1.004-0.002c-0.278-0.277-0.277-0.727,0-1.002
	c0.277-0.279,0.726-0.279,1.003-0.002S297.699,84.633,297.422,84.91z"/>
<g>
	<defs>
		<path id="SVGID_6_" d="M311.17,69.25c0,0-32.289,19.455-47.683,21.195c0,0,17.464,7.33,26.538,26.537
			C292.108,103.611,311.17,69.25,311.17,69.25z"/>
	</defs>
	<clipPath id="SVGID_11_">
		<use xlink:href="#SVGID_6_"  overflow="visible"/>
	</clipPath>
	<g clip-path="url(#SVGID_11_)">
		<g>
			<path fill="none" stroke="#FFFFFF" stroke-width="0.1552" stroke-miterlimit="10" d="M287.562,113.789
				c-1.793,0.422-2.905,2.219-2.481,4.012c0.423,1.793,2.219,2.904,4.014,2.48c1.792-0.422,8.607-5.457,8.607-5.457
				S289.354,113.365,287.562,113.789z"/>
			<path fill="none" stroke="#FFFFFF" stroke-width="0.1552" stroke-miterlimit="10" d="M286.79,115.037
				c-1.236,0.291-2.001,1.529-1.71,2.764c0.291,1.236,1.528,2.002,2.764,1.709c1.236-0.291,5.931-3.76,5.931-3.76
				S288.024,114.746,286.79,115.037z"/>
			<circle fill="none" stroke="#FFFFFF" stroke-width="0.1552" stroke-miterlimit="10" cx="284.752" cy="117.879" r="2.298"/>
		</g>
		<g>
			<path fill="none" stroke="#FFFFFF" stroke-width="0.1552" stroke-miterlimit="10" d="M286.455,110.965
				c-1.739,0.607-2.655,2.512-2.046,4.25c0.608,1.74,2.512,2.654,4.25,2.047c1.74-0.609,7.989-6.33,7.989-6.33
				S288.194,110.354,286.455,110.965z"/>
			<path fill="none" stroke="#FFFFFF" stroke-width="0.1552" stroke-miterlimit="10" d="M285.818,112.287
				c-1.197,0.418-1.829,1.729-1.409,2.928c0.418,1.197,1.729,1.83,2.929,1.41c1.197-0.42,5.502-4.363,5.502-4.363
				S287.017,111.867,285.818,112.287z"/>
			<circle fill="none" stroke="#FFFFFF" stroke-width="0.1552" stroke-miterlimit="10" cx="284.09" cy="115.327" r="2.298"/>
		</g>
		<g>
			<path fill="none" stroke="#FFFFFF" stroke-width="0.1552" stroke-miterlimit="10" d="M285.06,108.27
				c-1.666,0.787-2.377,2.777-1.589,4.443c0.786,1.664,2.775,2.377,4.442,1.59c1.664-0.787,7.279-7.135,7.279-7.135
				S286.725,107.484,285.06,108.27z"/>
			<path fill="none" stroke="#FFFFFF" stroke-width="0.1552" stroke-miterlimit="10" d="M284.564,109.652
				c-1.146,0.543-1.638,1.912-1.094,3.061c0.542,1.148,1.912,1.637,3.059,1.094c1.148-0.541,5.017-4.912,5.017-4.912
				S285.713,109.109,284.564,109.652z"/>
			<circle fill="none" stroke="#FFFFFF" stroke-width="0.1552" stroke-miterlimit="10" cx="283.166" cy="112.857" r="2.298"/>
		</g>
		<g>
			<path fill="none" stroke="#FFFFFF" stroke-width="0.1552" stroke-miterlimit="10" d="M283.39,105.738
				c-1.575,0.957-2.074,3.01-1.115,4.584c0.957,1.574,3.011,2.074,4.583,1.115c1.575-0.957,6.494-7.857,6.494-7.857
				S284.963,104.779,283.39,105.738z"/>
			<path fill="none" stroke="#FFFFFF" stroke-width="0.1552" stroke-miterlimit="10" d="M283.042,107.164
				c-1.085,0.66-1.429,2.074-0.769,3.158s2.074,1.428,3.158,0.768c1.085-0.658,4.473-5.412,4.473-5.412
				S284.127,106.504,283.042,107.164z"/>
			<circle fill="none" stroke="#FFFFFF" stroke-width="0.1552" stroke-miterlimit="10" cx="281.985" cy="110.497" r="2.299"/>
		</g>
		<g>
			<path fill="none" stroke="#FFFFFF" stroke-width="0.1552" stroke-miterlimit="10" d="M281.462,103.395
				c-1.465,1.119-1.744,3.213-0.628,4.676c1.118,1.465,3.212,1.748,4.676,0.631c1.465-1.119,5.633-8.496,5.633-8.496
				S282.928,102.277,281.462,103.395z"/>
			<path fill="none" stroke="#FFFFFF" stroke-width="0.1552" stroke-miterlimit="10" d="M281.267,104.85
				c-1.01,0.771-1.203,2.213-0.433,3.221c0.77,1.01,2.212,1.203,3.222,0.434c1.009-0.77,3.88-5.852,3.88-5.852
				S282.275,104.08,281.267,104.85z"/>
			<path fill="none" stroke="#FFFFFF" stroke-width="0.1552" stroke-miterlimit="10" d="M281.96,110.102
				c1.009-0.77,1.203-2.211,0.434-3.219c-0.771-1.01-2.212-1.205-3.223-0.436c-1.009,0.771-1.202,2.215-0.433,3.223
				S280.951,110.873,281.96,110.102z"/>
		</g>
		<g>
			<path fill="none" stroke="#FFFFFF" stroke-width="0.1552" stroke-miterlimit="10" d="M279.302,101.268
				c-1.34,1.266-1.4,3.377-0.136,4.715c1.266,1.34,3.377,1.4,4.716,0.135c1.341-1.264,4.713-9.037,4.713-9.037
				S280.641,100.002,279.302,101.268z"/>
			<path fill="none" stroke="#FFFFFF" stroke-width="0.1552" stroke-miterlimit="10" d="M279.259,102.734
				c-0.923,0.871-0.964,2.326-0.093,3.248c0.87,0.922,2.325,0.965,3.249,0.094c0.923-0.871,3.246-6.227,3.246-6.227
				S280.182,101.861,279.259,102.734z"/>
			<circle fill="none" stroke="#FFFFFF" stroke-width="0.1552" stroke-miterlimit="10" cx="278.921" cy="106.215" r="2.299"/>
		</g>
		<g>
			<path fill="none" stroke="#FFFFFF" stroke-width="0.1552" stroke-miterlimit="10" d="M276.928,99.379
				c-1.2,1.396-1.038,3.504,0.36,4.703c1.398,1.197,3.504,1.037,4.704-0.359c1.199-1.4,3.737-9.484,3.737-9.484
				S278.127,97.979,276.928,99.379z"/>
			<path fill="none" stroke="#FFFFFF" stroke-width="0.1552" stroke-miterlimit="10" d="M277.039,100.84
				c-0.825,0.965-0.714,2.416,0.249,3.242s2.415,0.715,3.24-0.248c0.827-0.965,2.575-6.533,2.575-6.533
				S277.866,99.877,277.039,100.84z"/>
			<circle fill="none" stroke="#FFFFFF" stroke-width="0.1552" stroke-miterlimit="10" cx="277.069" cy="104.336" r="2.298"/>
		</g>
		<g>
			<path fill="none" stroke="#FFFFFF" stroke-width="0.1552" stroke-miterlimit="10" d="M274.369,97.748
				c-1.046,1.516-0.663,3.594,0.852,4.639c1.517,1.047,3.595,0.664,4.641-0.852c1.046-1.518,2.724-9.822,2.724-9.822
				S275.416,96.229,274.369,97.748z"/>
			<path fill="none" stroke="#FFFFFF" stroke-width="0.1552" stroke-miterlimit="10" d="M274.635,99.191
				c-0.721,1.045-0.458,2.475,0.586,3.195c1.045,0.721,2.477,0.459,3.198-0.586c0.721-1.045,1.876-6.766,1.876-6.766
				S275.355,98.145,274.635,99.191z"/>
			<circle fill="none" stroke="#FFFFFF" stroke-width="0.1552" stroke-miterlimit="10" cx="275.03" cy="102.664" r="2.298"/>
		</g>
		<g>
			<path fill="none" stroke="#FFFFFF" stroke-width="0.1552" stroke-miterlimit="10" d="M271.654,96.393
				c-0.88,1.619-0.284,3.645,1.334,4.525c1.618,0.883,3.644,0.285,4.525-1.332s1.679-10.055,1.679-10.055
				S272.535,94.775,271.654,96.393z"/>
			<path fill="none" stroke="#FFFFFF" stroke-width="0.1552" stroke-miterlimit="10" d="M272.07,97.801
				c-0.608,1.115-0.197,2.512,0.918,3.117c1.114,0.607,2.511,0.197,3.117-0.918c0.607-1.115,1.157-6.928,1.157-6.928
				S272.677,96.688,272.07,97.801z"/>
			<circle fill="none" stroke="#FFFFFF" stroke-width="0.1552" stroke-miterlimit="10" cx="272.827" cy="101.215" r="2.298"/>
		</g>
		<g>
			<path fill="none" stroke="#FFFFFF" stroke-width="0.1552" stroke-miterlimit="10" d="M268.813,95.332
				c-0.707,1.701,0.099,3.654,1.8,4.361c1.702,0.705,3.654-0.1,4.36-1.801c0.708-1.701,0.616-10.176,0.616-10.176
				S269.52,93.631,268.813,95.332z"/>
			<path fill="none" stroke="#FFFFFF" stroke-width="0.1552" stroke-miterlimit="10" d="M269.374,96.689
				c-0.488,1.17,0.067,2.516,1.239,3.004c1.173,0.486,2.519-0.068,3.005-1.242c0.486-1.172,0.423-7.008,0.423-7.008
				S269.86,95.518,269.374,96.689z"/>
			<path fill="none" stroke="#FFFFFF" stroke-width="0.1552" stroke-miterlimit="10" d="M272.607,100.885
				c0.486-1.17-0.069-2.516-1.24-3.002c-1.172-0.486-2.518,0.066-3.006,1.238c-0.486,1.174,0.069,2.52,1.241,3.006
				C270.774,102.615,272.119,102.059,272.607,100.885z"/>
		</g>
		<g>
			<path fill="none" stroke="#FFFFFF" stroke-width="0.1552" stroke-miterlimit="10" d="M265.876,94.574
				c-0.524,1.766,0.482,3.623,2.247,4.148c1.767,0.525,3.624-0.482,4.149-2.248c0.524-1.766-0.455-10.184-0.455-10.184
				S266.4,92.809,265.876,94.574z"/>
			<path fill="none" stroke="#FFFFFF" stroke-width="0.1552" stroke-miterlimit="10" d="M266.575,95.865
				c-0.361,1.217,0.332,2.494,1.548,2.857c1.218,0.361,2.497-0.332,2.858-1.549s-0.314-7.014-0.314-7.014
				S266.937,94.648,266.575,95.865z"/>
			<circle fill="none" stroke="#FFFFFF" stroke-width="0.1552" stroke-miterlimit="10" cx="268.028" cy="99.045" r="2.298"/>
		</g>
		<g>
			<path fill="none" stroke="#FFFFFF" stroke-width="0.1552" stroke-miterlimit="10" d="M262.875,94.129
				c-0.336,1.811,0.858,3.553,2.671,3.889c1.812,0.338,3.553-0.857,3.89-2.668c0.336-1.812-1.521-10.082-1.521-10.082
				S263.212,92.318,262.875,94.129z"/>
			<path fill="none" stroke="#FFFFFF" stroke-width="0.1552" stroke-miterlimit="10" d="M263.705,95.338
				c-0.23,1.25,0.593,2.449,1.84,2.68c1.248,0.232,2.448-0.59,2.679-1.838c0.232-1.25-1.046-6.943-1.046-6.943
				S263.938,94.092,263.705,95.338z"/>
			<circle fill="none" stroke="#FFFFFF" stroke-width="0.1552" stroke-miterlimit="10" cx="265.483" cy="98.35" r="2.298"/>
		</g>
		<g>
			<path fill="none" stroke="#FFFFFF" stroke-width="0.1552" stroke-miterlimit="10" d="M259.845,94.002
				c-0.146,1.836,1.227,3.443,3.062,3.586c1.838,0.146,3.444-1.227,3.59-3.061c0.146-1.838-2.568-9.867-2.568-9.867
				S259.989,92.164,259.845,94.002z"/>
			<path fill="none" stroke="#FFFFFF" stroke-width="0.1552" stroke-miterlimit="10" d="M260.798,95.117
				c-0.101,1.266,0.845,2.373,2.108,2.471c1.267,0.102,2.373-0.844,2.474-2.109s-1.769-6.795-1.769-6.795
				S260.897,93.852,260.798,95.117z"/>
			<circle fill="none" stroke="#FFFFFF" stroke-width="0.1552" stroke-miterlimit="10" cx="262.882" cy="97.925" r="2.298"/>
		</g>
	</g>
</g>
<path fill="#231F20" d="M68.639,311.879c0,0,32.289-19.453,47.684-21.193c0,0-17.465-7.33-26.539-26.537
	C87.7,277.518,68.639,311.879,68.639,311.879z"/>
<path fill="#FFFFFF" d="M95.133,297.076c1.47-1.471-1.716-7.037-3.185-8.506c-1.47-1.471-7.036-4.654-8.505-3.184
	c-1.471,1.469,1.714,7.035,3.184,8.506C88.096,295.361,93.663,298.545,95.133,297.076z"/>
<circle fill="#231F20" cx="89.288" cy="291.23" r="3.558"/>
<circle fill="#FFFFFF" cx="87.569" cy="291.366" r="1.311"/>
<path fill="#FFFFFF" d="M87.011,299.842c0.796-0.797-0.93-3.812-1.726-4.609c-0.796-0.795-3.812-2.52-4.607-1.725
	c-0.797,0.797,0.928,3.812,1.725,4.609C83.197,298.912,86.215,300.637,87.011,299.842z"/>
<circle fill="#231F20" cx="83.844" cy="296.675" r="1.927"/>
<circle fill="#FFFFFF" cx="82.914" cy="296.748" r="0.71"/>
<g>
	<defs>
		<path id="SVGID_5_" d="M68.663,311.904c0,0,32.289-19.455,47.683-21.193c0,0-17.463-7.332-26.537-26.539
			C87.725,277.543,68.663,311.904,68.663,311.904z"/>
	</defs>
	<clipPath id="SVGID_12_">
		<use xlink:href="#SVGID_5_"  overflow="visible"/>
	</clipPath>
	<g clip-path="url(#SVGID_12_)">
		<g>
			<path fill="none" stroke="#FFFFFF" stroke-width="0.1552" stroke-miterlimit="10" d="M92.271,267.367
				c1.793-0.424,2.904-2.219,2.481-4.014c-0.423-1.793-2.219-2.902-4.013-2.48c-1.794,0.424-8.608,5.459-8.608,5.459
				S90.479,267.791,92.271,267.367z"/>
			<path fill="none" stroke="#FFFFFF" stroke-width="0.1552" stroke-miterlimit="10" d="M93.043,266.119
				c1.236-0.291,2.002-1.529,1.71-2.766c-0.292-1.234-1.528-2-2.765-1.709c-1.235,0.293-5.93,3.762-5.93,3.762
				S91.809,266.41,93.043,266.119z"/>
			<circle fill="none" stroke="#FFFFFF" stroke-width="0.1552" stroke-miterlimit="10" cx="95.081" cy="263.276" r="2.299"/>
		</g>
		<g>
			<path fill="none" stroke="#FFFFFF" stroke-width="0.1552" stroke-miterlimit="10" d="M93.378,270.191
				c1.739-0.609,2.655-2.512,2.048-4.25c-0.61-1.742-2.514-2.654-4.252-2.047c-1.74,0.607-7.989,6.33-7.989,6.33
				S91.639,270.803,93.378,270.191z"/>
			<path fill="none" stroke="#FFFFFF" stroke-width="0.1552" stroke-miterlimit="10" d="M94.014,268.869
				c1.198-0.42,1.83-1.73,1.41-2.928c-0.418-1.199-1.73-1.83-2.928-1.412c-1.197,0.422-5.502,4.363-5.502,4.363
				S92.816,269.289,94.014,268.869z"/>
			<circle fill="none" stroke="#FFFFFF" stroke-width="0.1552" stroke-miterlimit="10" cx="95.742" cy="265.829" r="2.298"/>
		</g>
		<g>
			<path fill="none" stroke="#FFFFFF" stroke-width="0.1552" stroke-miterlimit="10" d="M94.773,272.887
				c1.666-0.789,2.377-2.777,1.59-4.445c-0.787-1.664-2.777-2.377-4.443-1.588c-1.664,0.787-7.279,7.133-7.279,7.133
				S93.109,273.672,94.773,272.887z"/>
			<path fill="none" stroke="#FFFFFF" stroke-width="0.1552" stroke-miterlimit="10" d="M95.268,271.504
				c1.148-0.545,1.639-1.912,1.096-3.061s-1.913-1.639-3.06-1.096c-1.149,0.543-5.017,4.914-5.017,4.914
				S94.121,272.045,95.268,271.504z"/>
			<circle fill="none" stroke="#FFFFFF" stroke-width="0.1552" stroke-miterlimit="10" cx="96.667" cy="268.299" r="2.298"/>
		</g>
		<g>
			<path fill="none" stroke="#FFFFFF" stroke-width="0.1552" stroke-miterlimit="10" d="M96.443,275.416
				c1.574-0.955,2.074-3.01,1.115-4.584c-0.957-1.572-3.01-2.072-4.584-1.113c-1.574,0.955-6.492,7.857-6.492,7.857
				S94.87,276.375,96.443,275.416z"/>
			<path fill="none" stroke="#FFFFFF" stroke-width="0.1552" stroke-miterlimit="10" d="M96.791,273.99
				c1.085-0.658,1.428-2.072,0.768-3.158c-0.659-1.084-2.072-1.428-3.156-0.768c-1.086,0.66-4.475,5.414-4.475,5.414
				S95.707,274.65,96.791,273.99z"/>
			<circle fill="none" stroke="#FFFFFF" stroke-width="0.1552" stroke-miterlimit="10" cx="97.848" cy="270.657" r="2.299"/>
		</g>
		<g>
			<path fill="none" stroke="#FFFFFF" stroke-width="0.1552" stroke-miterlimit="10" d="M98.371,277.76
				c1.464-1.117,1.744-3.211,0.628-4.676c-1.117-1.465-3.212-1.746-4.677-0.629c-1.464,1.119-5.633,8.496-5.633,8.496
				S96.906,278.877,98.371,277.76z"/>
			<path fill="none" stroke="#FFFFFF" stroke-width="0.1552" stroke-miterlimit="10" d="M98.566,276.307
				c1.01-0.771,1.203-2.213,0.433-3.223c-0.771-1.008-2.212-1.203-3.222-0.434c-1.01,0.771-3.881,5.854-3.881,5.854
				S97.558,277.074,98.566,276.307z"/>
			<circle fill="none" stroke="#FFFFFF" stroke-width="0.1552" stroke-miterlimit="10" cx="99.267" cy="272.88" r="2.298"/>
		</g>
		<g>
			<path fill="none" stroke="#FFFFFF" stroke-width="0.1552" stroke-miterlimit="10" d="M100.531,279.889
				c1.34-1.266,1.4-3.377,0.136-4.717s-3.376-1.398-4.716-0.135c-1.34,1.266-4.713,9.039-4.713,9.039
				S99.192,281.152,100.531,279.889z"/>
			<path fill="none" stroke="#FFFFFF" stroke-width="0.1552" stroke-miterlimit="10" d="M100.574,278.422
				c0.922-0.871,0.964-2.326,0.093-3.25c-0.87-0.922-2.325-0.965-3.249-0.092c-0.922,0.871-3.246,6.227-3.246,6.227
				S99.652,279.293,100.574,278.422z"/>
			<circle fill="none" stroke="#FFFFFF" stroke-width="0.1552" stroke-miterlimit="10" cx="100.912" cy="274.941" r="2.299"/>
		</g>
		<g>
			<path fill="none" stroke="#FFFFFF" stroke-width="0.1552" stroke-miterlimit="10" d="M102.905,281.777
				c1.2-1.398,1.038-3.504-0.36-4.703s-3.505-1.037-4.703,0.359c-1.201,1.398-3.738,9.482-3.738,9.482
				S101.706,283.176,102.905,281.777z"/>
			<path fill="none" stroke="#FFFFFF" stroke-width="0.1552" stroke-miterlimit="10" d="M102.794,280.314
				c0.825-0.963,0.714-2.414-0.249-3.24s-2.415-0.715-3.24,0.248c-0.827,0.963-2.575,6.533-2.575,6.533
				S101.967,281.279,102.794,280.314z"/>
			<circle fill="none" stroke="#FFFFFF" stroke-width="0.1552" stroke-miterlimit="10" cx="102.764" cy="276.818" r="2.298"/>
		</g>
		<g>
			<path fill="none" stroke="#FFFFFF" stroke-width="0.1552" stroke-miterlimit="10" d="M105.463,283.408
				c1.047-1.518,0.664-3.594-0.851-4.641c-1.517-1.045-3.595-0.664-4.641,0.852c-1.046,1.518-2.724,9.824-2.724,9.824
				S104.416,284.926,105.463,283.408z"/>
			<path fill="none" stroke="#FFFFFF" stroke-width="0.1552" stroke-miterlimit="10" d="M105.198,281.965
				c0.721-1.045,0.458-2.475-0.586-3.197c-1.046-0.721-2.477-0.457-3.198,0.588c-0.721,1.043-1.875,6.766-1.875,6.766
				S104.478,283.012,105.198,281.965z"/>
			<circle fill="none" stroke="#FFFFFF" stroke-width="0.1552" stroke-miterlimit="10" cx="104.803" cy="278.491" r="2.298"/>
		</g>
		<g>
			<path fill="none" stroke="#FFFFFF" stroke-width="0.1552" stroke-miterlimit="10" d="M108.178,284.762
				c0.882-1.617,0.285-3.645-1.332-4.523c-1.619-0.885-3.645-0.287-4.527,1.332c-0.881,1.617-1.678,10.055-1.678,10.055
				S107.297,286.381,108.178,284.762z"/>
			<path fill="none" stroke="#FFFFFF" stroke-width="0.1552" stroke-miterlimit="10" d="M107.763,283.354
				c0.608-1.113,0.196-2.51-0.917-3.115c-1.114-0.609-2.512-0.197-3.119,0.918c-0.605,1.113-1.155,6.926-1.155,6.926
				S107.156,284.469,107.763,283.354z"/>
			<circle fill="none" stroke="#FFFFFF" stroke-width="0.1552" stroke-miterlimit="10" cx="107.007" cy="279.94" r="2.297"/>
		</g>
		<g>
			<path fill="none" stroke="#FFFFFF" stroke-width="0.1552" stroke-miterlimit="10" d="M111.02,285.824
				c0.707-1.701-0.1-3.654-1.801-4.361s-3.654,0.098-4.361,1.801c-0.706,1.699-0.614,10.174-0.614,10.174
				S110.313,287.525,111.02,285.824z"/>
			<path fill="none" stroke="#FFFFFF" stroke-width="0.1552" stroke-miterlimit="10" d="M110.459,284.467
				c0.488-1.172-0.067-2.518-1.24-3.004c-1.171-0.486-2.517,0.066-3.003,1.24c-0.487,1.172-0.425,7.008-0.425,7.008
				S109.973,285.639,110.459,284.467z"/>
			<circle fill="none" stroke="#FFFFFF" stroke-width="0.1552" stroke-miterlimit="10" cx="109.349" cy="281.151" r="2.298"/>
		</g>
		<g>
			<path fill="none" stroke="#FFFFFF" stroke-width="0.1552" stroke-miterlimit="10" d="M113.957,286.58
				c0.524-1.764-0.482-3.623-2.248-4.146c-1.766-0.525-3.623,0.48-4.148,2.248c-0.525,1.766,0.455,10.182,0.455,10.182
				S113.434,288.348,113.957,286.58z"/>
			<path fill="none" stroke="#FFFFFF" stroke-width="0.1552" stroke-miterlimit="10" d="M113.258,285.291
				c0.361-1.217-0.332-2.496-1.549-2.857s-2.496,0.332-2.857,1.547c-0.361,1.219,0.314,7.016,0.314,7.016
				S112.896,286.508,113.258,285.291z"/>
			<circle fill="none" stroke="#FFFFFF" stroke-width="0.1552" stroke-miterlimit="10" cx="111.806" cy="282.109" r="2.298"/>
		</g>
		<g>
			<path fill="none" stroke="#FFFFFF" stroke-width="0.1552" stroke-miterlimit="10" d="M116.958,287.025
				c0.337-1.811-0.858-3.551-2.671-3.889c-1.812-0.336-3.552,0.859-3.891,2.672c-0.334,1.811,1.521,10.078,1.521,10.078
				S116.621,288.838,116.958,287.025z"/>
			<path fill="none" stroke="#FFFFFF" stroke-width="0.1552" stroke-miterlimit="10" d="M116.128,285.816
				c0.231-1.248-0.593-2.449-1.84-2.68c-1.247-0.232-2.448,0.592-2.679,1.84c-0.232,1.248,1.047,6.943,1.047,6.943
				S115.895,287.064,116.128,285.816z"/>
			<circle fill="none" stroke="#FFFFFF" stroke-width="0.1552" stroke-miterlimit="10" cx="114.35" cy="282.807" r="2.298"/>
		</g>
		<g>
			<path fill="none" stroke="#FFFFFF" stroke-width="0.1552" stroke-miterlimit="10" d="M119.988,287.154
				c0.146-1.836-1.227-3.443-3.062-3.588c-1.837-0.145-3.443,1.227-3.59,3.062c-0.145,1.838,2.569,9.865,2.569,9.865
				S119.845,288.992,119.988,287.154z"/>
			<path fill="none" stroke="#FFFFFF" stroke-width="0.1552" stroke-miterlimit="10" d="M119.035,286.039
				c0.101-1.266-0.844-2.373-2.109-2.473s-2.373,0.846-2.473,2.109c-0.1,1.268,1.77,6.797,1.77,6.797
				S118.937,287.303,119.035,286.039z"/>
			<circle fill="none" stroke="#FFFFFF" stroke-width="0.1552" stroke-miterlimit="10" cx="116.952" cy="283.23" r="2.299"/>
		</g>
	</g>
</g>
<path fill="#231F20" d="M311.219,311.855c0,0-19.455-32.289-21.193-47.684c0,0-7.332,17.465-26.538,26.539
	C276.857,292.795,311.219,311.855,311.219,311.855z"/>
<path fill="#FFFFFF" d="M296.415,285.361c-1.47-1.471-7.037,1.715-8.506,3.184c-1.47,1.471-4.653,7.037-3.185,8.506
	c1.47,1.471,7.037-1.715,8.507-3.184C294.699,292.398,297.885,286.83,296.415,285.361z"/>
<circle fill="#231F20" cx="290.57" cy="291.206" r="3.558"/>
<circle fill="#FFFFFF" cx="290.705" cy="292.925" r="1.311"/>
<path fill="#FFFFFF" d="M299.18,293.484c-0.796-0.797-3.812,0.928-4.607,1.725s-2.521,3.812-1.726,4.607
	c0.797,0.797,3.812-0.928,4.608-1.725C298.251,297.297,299.976,294.279,299.18,293.484z"/>
<circle fill="#231F20" cx="296.013" cy="296.65" r="1.928"/>
<circle fill="#FFFFFF" cx="296.087" cy="297.58" r="0.71"/>
<g>
	<defs>
		<path id="SVGID_4_" d="M311.243,311.832c0,0-19.454-32.289-21.193-47.684c0,0-7.332,17.463-26.538,26.537
			C276.882,292.77,311.243,311.832,311.243,311.832z"/>
	</defs>
	<clipPath id="SVGID_13_">
		<use xlink:href="#SVGID_4_"  overflow="visible"/>
	</clipPath>
	<g clip-path="url(#SVGID_13_)">
		<g>
			<path fill="none" stroke="#FFFFFF" stroke-width="0.1552" stroke-miterlimit="10" d="M266.706,288.223
				c-0.424-1.793-2.22-2.904-4.014-2.48c-1.793,0.422-2.903,2.219-2.479,4.012c0.423,1.793,5.458,8.609,5.458,8.609
				S267.129,290.016,266.706,288.223z"/>
			<path fill="none" stroke="#FFFFFF" stroke-width="0.1552" stroke-miterlimit="10" d="M265.458,287.451
				c-0.292-1.236-1.53-2-2.766-1.709c-1.234,0.291-2,1.527-1.709,2.764c0.292,1.234,3.762,5.93,3.762,5.93
				S265.749,288.686,265.458,287.451z"/>
			<circle fill="none" stroke="#FFFFFF" stroke-width="0.1552" stroke-miterlimit="10" cx="262.615" cy="285.413" r="2.298"/>
		</g>
		<g>
			<path fill="none" stroke="#FFFFFF" stroke-width="0.1552" stroke-miterlimit="10" d="M269.53,287.117
				c-0.608-1.74-2.512-2.656-4.25-2.049c-1.741,0.609-2.655,2.514-2.047,4.252c0.607,1.74,6.331,7.988,6.331,7.988
				S270.141,288.854,269.53,287.117z"/>
			<path fill="none" stroke="#FFFFFF" stroke-width="0.1552" stroke-miterlimit="10" d="M268.208,286.48
				c-0.42-1.199-1.73-1.83-2.928-1.412c-1.198,0.42-1.83,1.73-1.411,2.93c0.421,1.197,4.362,5.502,4.362,5.502
				S268.628,287.678,268.208,286.48z"/>
			<path fill="none" stroke="#FFFFFF" stroke-width="0.1552" stroke-miterlimit="10" d="M262.999,285.51
				c0.42,1.199,1.73,1.83,2.928,1.412c1.199-0.422,1.831-1.732,1.41-2.93c-0.42-1.199-1.729-1.83-2.928-1.41
				S262.58,284.312,262.999,285.51z"/>
		</g>
		<g>
			<path fill="none" stroke="#FFFFFF" stroke-width="0.1552" stroke-miterlimit="10" d="M272.225,285.721
				c-0.788-1.666-2.777-2.377-4.443-1.59c-1.664,0.787-2.378,2.775-1.589,4.443c0.787,1.664,7.134,7.279,7.134,7.279
				S273.011,287.387,272.225,285.721z"/>
			<path fill="none" stroke="#FFFFFF" stroke-width="0.1552" stroke-miterlimit="10" d="M270.843,285.227
				c-0.544-1.146-1.913-1.639-3.06-1.096c-1.149,0.543-1.64,1.914-1.096,3.061c0.542,1.146,4.912,5.016,4.912,5.016
				S271.385,286.373,270.843,285.227z"/>
			<circle fill="none" stroke="#FFFFFF" stroke-width="0.1552" stroke-miterlimit="10" cx="267.637" cy="283.826" r="2.298"/>
		</g>
		<g>
			<path fill="none" stroke="#FFFFFF" stroke-width="0.1552" stroke-miterlimit="10" d="M274.756,284.051
				c-0.957-1.576-3.011-2.074-4.584-1.115c-1.574,0.957-2.074,3.012-1.115,4.584c0.957,1.574,7.858,6.492,7.858,6.492
				S275.715,285.623,274.756,284.051z"/>
			<path fill="none" stroke="#FFFFFF" stroke-width="0.1552" stroke-miterlimit="10" d="M273.33,283.703
				c-0.66-1.084-2.073-1.428-3.158-0.77c-1.084,0.66-1.428,2.076-0.769,3.158c0.659,1.086,5.414,4.475,5.414,4.475
				S273.99,284.787,273.33,283.703z"/>
			<circle fill="none" stroke="#FFFFFF" stroke-width="0.1552" stroke-miterlimit="10" cx="269.996" cy="282.646" r="2.299"/>
		</g>
		<g>
			<path fill="none" stroke="#FFFFFF" stroke-width="0.1552" stroke-miterlimit="10" d="M277.1,282.123
				c-1.118-1.465-3.212-1.746-4.677-0.627c-1.464,1.117-1.746,3.211-0.629,4.676c1.119,1.465,8.496,5.633,8.496,5.633
				S278.216,283.588,277.1,282.123z"/>
			<path fill="none" stroke="#FFFFFF" stroke-width="0.1552" stroke-miterlimit="10" d="M275.645,281.928
				c-0.771-1.01-2.212-1.203-3.222-0.432c-1.009,0.77-1.203,2.211-0.433,3.221c0.77,1.01,5.853,3.881,5.853,3.881
				S276.414,282.938,275.645,281.928z"/>
			<circle fill="none" stroke="#FFFFFF" stroke-width="0.1552" stroke-miterlimit="10" cx="272.219" cy="281.227" r="2.299"/>
		</g>
		<g>
			<path fill="none" stroke="#FFFFFF" stroke-width="0.1552" stroke-miterlimit="10" d="M279.227,279.963
				c-1.264-1.342-3.376-1.4-4.716-0.135c-1.34,1.264-1.399,3.375-0.134,4.715c1.264,1.34,9.037,4.713,9.037,4.713
				S280.491,281.303,279.227,279.963z"/>
			<path fill="none" stroke="#FFFFFF" stroke-width="0.1552" stroke-miterlimit="10" d="M277.761,279.92
				c-0.872-0.922-2.327-0.965-3.25-0.092c-0.922,0.869-0.964,2.324-0.093,3.248c0.872,0.922,6.227,3.246,6.227,3.246
				S278.632,280.842,277.761,279.92z"/>
			<circle fill="none" stroke="#FFFFFF" stroke-width="0.1552" stroke-miterlimit="10" cx="274.28" cy="279.582" r="2.298"/>
		</g>
		<g>
			<path fill="none" stroke="#FFFFFF" stroke-width="0.1552" stroke-miterlimit="10" d="M281.117,277.59
				c-1.398-1.201-3.505-1.039-4.704,0.359c-1.198,1.398-1.038,3.504,0.359,4.703c1.399,1.201,9.483,3.738,9.483,3.738
				S282.516,278.787,281.117,277.59z"/>
			<path fill="none" stroke="#FFFFFF" stroke-width="0.1552" stroke-miterlimit="10" d="M279.654,277.701
				c-0.965-0.826-2.415-0.715-3.241,0.248c-0.827,0.963-0.716,2.414,0.247,3.24c0.965,0.828,6.534,2.576,6.534,2.576
				S280.617,278.527,279.654,277.701z"/>
			<path fill="none" stroke="#FFFFFF" stroke-width="0.1552" stroke-miterlimit="10" d="M274.661,279.475
				c0.963,0.826,2.414,0.715,3.24-0.25c0.825-0.961,0.715-2.414-0.248-3.238c-0.963-0.828-2.415-0.715-3.24,0.248
				C273.587,277.197,273.697,278.648,274.661,279.475z"/>
		</g>
		<g>
			<path fill="none" stroke="#FFFFFF" stroke-width="0.1552" stroke-miterlimit="10" d="M282.747,275.031
				c-1.517-1.047-3.595-0.664-4.64,0.85c-1.047,1.518-0.665,3.596,0.851,4.643c1.519,1.045,9.823,2.723,9.823,2.723
				S284.266,276.076,282.747,275.031z"/>
			<path fill="none" stroke="#FFFFFF" stroke-width="0.1552" stroke-miterlimit="10" d="M281.304,275.297
				c-1.045-0.723-2.475-0.459-3.196,0.584c-0.721,1.045-0.459,2.477,0.587,3.199c1.044,0.721,6.766,1.875,6.766,1.875
				S282.35,276.016,281.304,275.297z"/>
			<circle fill="none" stroke="#FFFFFF" stroke-width="0.1552" stroke-miterlimit="10" cx="277.83" cy="275.69" r="2.298"/>
		</g>
		<g>
			<path fill="none" stroke="#FFFFFF" stroke-width="0.1552" stroke-miterlimit="10" d="M284.102,272.316
				c-1.618-0.883-3.645-0.285-4.524,1.332c-0.884,1.619-0.286,3.645,1.331,4.527c1.618,0.881,10.055,1.678,10.055,1.678
				S285.719,273.197,284.102,272.316z"/>
			<path fill="none" stroke="#FFFFFF" stroke-width="0.1552" stroke-miterlimit="10" d="M282.693,272.73
				c-1.114-0.607-2.511-0.197-3.116,0.918c-0.609,1.115-0.198,2.512,0.917,3.119c1.115,0.605,6.927,1.156,6.927,1.156
				S283.808,273.338,282.693,272.73z"/>
			<circle fill="none" stroke="#FFFFFF" stroke-width="0.1552" stroke-miterlimit="10" cx="279.28" cy="273.487" r="2.298"/>
		</g>
		<g>
			<path fill="none" stroke="#FFFFFF" stroke-width="0.1552" stroke-miterlimit="10" d="M285.163,269.475
				c-1.702-0.707-3.654,0.098-4.361,1.801c-0.707,1.701,0.098,3.652,1.8,4.359c1.7,0.709,10.176,0.617,10.176,0.617
				S286.863,270.18,285.163,269.475z"/>
			<path fill="none" stroke="#FFFFFF" stroke-width="0.1552" stroke-miterlimit="10" d="M283.806,270.035
				c-1.172-0.488-2.518,0.066-3.004,1.24c-0.487,1.172,0.068,2.518,1.241,3.004c1.172,0.486,7.007,0.424,7.007,0.424
				S284.978,270.521,283.806,270.035z"/>
			<circle fill="none" stroke="#FFFFFF" stroke-width="0.1552" stroke-miterlimit="10" cx="280.49" cy="271.146" r="2.298"/>
		</g>
		<g>
			<path fill="none" stroke="#FFFFFF" stroke-width="0.1552" stroke-miterlimit="10" d="M285.919,266.537
				c-1.765-0.525-3.622,0.48-4.146,2.248c-0.525,1.766,0.481,3.623,2.247,4.148s10.184-0.457,10.184-0.457
				S287.687,267.061,285.919,266.537z"/>
			<path fill="none" stroke="#FFFFFF" stroke-width="0.1552" stroke-miterlimit="10" d="M284.629,267.236
				c-1.217-0.361-2.495,0.33-2.856,1.549c-0.362,1.217,0.332,2.496,1.548,2.857c1.218,0.361,7.014-0.314,7.014-0.314
				S285.846,267.598,284.629,267.236z"/>
			<circle fill="none" stroke="#FFFFFF" stroke-width="0.1552" stroke-miterlimit="10" cx="281.449" cy="268.688" r="2.297"/>
		</g>
		<g>
			<path fill="none" stroke="#FFFFFF" stroke-width="0.1552" stroke-miterlimit="10" d="M286.364,263.537
				c-1.811-0.338-3.552,0.857-3.888,2.67c-0.337,1.811,0.858,3.553,2.67,3.889s10.079-1.52,10.079-1.52
				S288.176,263.873,286.364,263.537z"/>
			<path fill="none" stroke="#FFFFFF" stroke-width="0.1552" stroke-miterlimit="10" d="M285.155,264.367
				c-1.249-0.232-2.448,0.592-2.68,1.84c-0.232,1.246,0.592,2.447,1.84,2.678c1.248,0.232,6.943-1.047,6.943-1.047
				S286.403,264.6,285.155,264.367z"/>
			<circle fill="none" stroke="#FFFFFF" stroke-width="0.1552" stroke-miterlimit="10" cx="282.145" cy="266.145" r="2.298"/>
		</g>
		<g>
			<path fill="none" stroke="#FFFFFF" stroke-width="0.1552" stroke-miterlimit="10" d="M286.493,260.506
				c-1.837-0.145-3.443,1.227-3.588,3.062s1.228,3.443,3.062,3.59c1.838,0.145,9.865-2.568,9.865-2.568
				S288.331,260.65,286.493,260.506z"/>
			<path fill="none" stroke="#FFFFFF" stroke-width="0.1552" stroke-miterlimit="10" d="M285.378,261.459
				c-1.267-0.1-2.373,0.844-2.473,2.109s0.846,2.373,2.109,2.473c1.267,0.1,6.797-1.77,6.797-1.77S286.643,261.559,285.378,261.459z
				"/>
			<circle fill="none" stroke="#FFFFFF" stroke-width="0.1552" stroke-miterlimit="10" cx="282.569" cy="263.543" r="2.298"/>
		</g>
	</g>
</g>
<path fill="#231F20" d="M68.614,69.299c0,0,19.454,32.291,21.193,47.684c0,0,7.331-17.463,26.538-26.537
	C102.976,88.361,68.614,69.299,68.614,69.299z"/>
<path fill="#FFFFFF" d="M83.418,95.795c1.47,1.469,7.037-1.717,8.506-3.186s4.654-7.035,3.185-8.506
	c-1.47-1.469-7.036,1.715-8.507,3.184C85.133,88.756,81.948,94.324,83.418,95.795z"/>
<circle fill="#231F20" cx="89.264" cy="89.949" r="3.558"/>
<circle fill="#FFFFFF" cx="89.128" cy="88.231" r="1.311"/>
<path fill="#FFFFFF" d="M80.652,87.672c0.797,0.797,3.812-0.93,4.609-1.725c0.795-0.797,2.521-3.812,1.725-4.609
	c-0.797-0.795-3.812,0.93-4.608,1.727C81.582,83.859,79.856,86.875,80.652,87.672z"/>
<circle fill="#231F20" cx="83.82" cy="84.505" r="1.927"/>
<circle fill="#FFFFFF" cx="83.746" cy="83.574" r="0.71"/>
<g>
	<defs>
		<path id="SVGID_3_" d="M68.589,69.324c0,0,19.454,32.289,21.194,47.684c0,0,7.332-17.465,26.538-26.537
			C102.951,88.387,68.589,69.324,68.589,69.324z"/>
	</defs>
	<clipPath id="SVGID_14_">
		<use xlink:href="#SVGID_3_"  overflow="visible"/>
	</clipPath>
	<g clip-path="url(#SVGID_14_)">
		<g>
			<path fill="none" stroke="#FFFFFF" stroke-width="0.1552" stroke-miterlimit="10" d="M113.127,92.934
				c0.424,1.793,2.221,2.904,4.014,2.48c1.793-0.422,2.903-2.219,2.48-4.014c-0.424-1.793-5.459-8.607-5.459-8.607
				S112.703,91.141,113.127,92.934z"/>
			<path fill="none" stroke="#FFFFFF" stroke-width="0.1552" stroke-miterlimit="10" d="M114.375,93.705
				c0.291,1.236,1.53,2,2.766,1.709c1.234-0.291,2-1.527,1.708-2.764s-3.761-5.93-3.761-5.93S114.084,92.469,114.375,93.705z"/>
			<circle fill="none" stroke="#FFFFFF" stroke-width="0.1552" stroke-miterlimit="10" cx="117.218" cy="95.742" r="2.299"/>
		</g>
		<g>
			<path fill="none" stroke="#FFFFFF" stroke-width="0.1552" stroke-miterlimit="10" d="M110.303,94.039
				c0.609,1.738,2.512,2.654,4.25,2.047c1.741-0.609,2.655-2.514,2.047-4.25c-0.607-1.74-6.33-7.99-6.33-7.99
				S109.692,92.301,110.303,94.039z"/>
			<path fill="none" stroke="#FFFFFF" stroke-width="0.1552" stroke-miterlimit="10" d="M111.625,94.676
				c0.419,1.197,1.73,1.83,2.928,1.41c1.199-0.42,1.83-1.73,1.411-2.93c-0.421-1.197-4.362-5.502-4.362-5.502
				S111.205,93.477,111.625,94.676z"/>
			<circle fill="none" stroke="#FFFFFF" stroke-width="0.1552" stroke-miterlimit="10" cx="114.665" cy="96.403" r="2.298"/>
		</g>
		<g>
			<path fill="none" stroke="#FFFFFF" stroke-width="0.1552" stroke-miterlimit="10" d="M107.609,95.436
				c0.787,1.666,2.775,2.375,4.443,1.588c1.663-0.787,2.376-2.775,1.588-4.441c-0.787-1.666-7.133-7.279-7.133-7.279
				S106.822,93.77,107.609,95.436z"/>
			<path fill="none" stroke="#FFFFFF" stroke-width="0.1552" stroke-miterlimit="10" d="M108.99,95.93
				c0.544,1.146,1.913,1.639,3.061,1.094c1.148-0.541,1.639-1.912,1.094-3.059c-0.541-1.148-4.912-5.018-4.912-5.018
				S108.448,94.781,108.99,95.93z"/>
			<circle fill="none" stroke="#FFFFFF" stroke-width="0.1552" stroke-miterlimit="10" cx="112.196" cy="97.328" r="2.298"/>
		</g>
		<g>
			<path fill="none" stroke="#FFFFFF" stroke-width="0.1552" stroke-miterlimit="10" d="M105.076,97.105
				c0.958,1.574,3.012,2.072,4.586,1.115c1.573-0.959,2.072-3.012,1.114-4.586c-0.957-1.574-7.858-6.49-7.858-6.49
				S104.118,95.531,105.076,97.105z"/>
			<path fill="none" stroke="#FFFFFF" stroke-width="0.1552" stroke-miterlimit="10" d="M106.503,97.453
				c0.659,1.084,2.073,1.428,3.158,0.768c1.084-0.66,1.429-2.074,0.769-3.158s-5.414-4.473-5.414-4.473
				S105.843,96.369,106.503,97.453z"/>
			<circle fill="none" stroke="#FFFFFF" stroke-width="0.1552" stroke-miterlimit="10" cx="109.837" cy="98.509" r="2.299"/>
		</g>
		<g>
			<path fill="none" stroke="#FFFFFF" stroke-width="0.1552" stroke-miterlimit="10" d="M102.734,99.031
				c1.117,1.465,3.211,1.746,4.675,0.629c1.466-1.117,1.747-3.213,0.63-4.678c-1.119-1.463-8.496-5.631-8.496-5.631
				S101.617,97.566,102.734,99.031z"/>
			<path fill="none" stroke="#FFFFFF" stroke-width="0.1552" stroke-miterlimit="10" d="M104.188,99.229
				c0.771,1.008,2.213,1.201,3.222,0.432s1.203-2.213,0.434-3.223c-0.771-1.008-5.853-3.879-5.853-3.879
				S103.419,98.219,104.188,99.229z"/>
			<circle fill="none" stroke="#FFFFFF" stroke-width="0.1552" stroke-miterlimit="10" cx="107.614" cy="99.928" r="2.299"/>
		</g>
		<g>
			<path fill="none" stroke="#FFFFFF" stroke-width="0.1552" stroke-miterlimit="10" d="M100.605,101.193
				c1.266,1.34,3.377,1.398,4.716,0.135c1.34-1.266,1.399-3.377,0.136-4.717c-1.265-1.34-9.038-4.711-9.038-4.711
				S99.341,99.854,100.605,101.193z"/>
			<path fill="none" stroke="#FFFFFF" stroke-width="0.1552" stroke-miterlimit="10" d="M102.072,101.234
				c0.873,0.924,2.327,0.965,3.249,0.094c0.923-0.871,0.964-2.324,0.094-3.248c-0.872-0.922-6.227-3.246-6.227-3.246
				S101.201,100.312,102.072,101.234z"/>
			<circle fill="none" stroke="#FFFFFF" stroke-width="0.1552" stroke-miterlimit="10" cx="105.553" cy="101.574" r="2.299"/>
		</g>
		<g>
			<path fill="none" stroke="#FFFFFF" stroke-width="0.1552" stroke-miterlimit="10" d="M98.717,103.566
				c1.398,1.201,3.504,1.039,4.703-0.361c1.199-1.396,1.038-3.504-0.359-4.701c-1.398-1.201-9.482-3.738-9.482-3.738
				S97.318,102.367,98.717,103.566z"/>
			<path fill="none" stroke="#FFFFFF" stroke-width="0.1552" stroke-miterlimit="10" d="M100.18,103.455
				c0.964,0.826,2.414,0.715,3.24-0.25c0.827-0.963,0.715-2.414-0.248-3.24c-0.964-0.826-6.533-2.574-6.533-2.574
				S99.216,102.627,100.18,103.455z"/>
			<circle fill="none" stroke="#FFFFFF" stroke-width="0.1552" stroke-miterlimit="10" cx="103.676" cy="103.426" r="2.298"/>
		</g>
		<g>
			<path fill="none" stroke="#FFFFFF" stroke-width="0.1552" stroke-miterlimit="10" d="M97.086,106.125
				c1.516,1.047,3.594,0.664,4.64-0.852c1.046-1.518,0.665-3.594-0.851-4.641c-1.518-1.045-9.823-2.723-9.823-2.723
				S95.568,105.078,97.086,106.125z"/>
			<path fill="none" stroke="#FFFFFF" stroke-width="0.1552" stroke-miterlimit="10" d="M98.529,105.859
				c1.045,0.721,2.475,0.459,3.196-0.586c0.721-1.045,0.458-2.477-0.587-3.197c-1.043-0.721-6.766-1.877-6.766-1.877
				S97.483,105.139,98.529,105.859z"/>
			<circle fill="none" stroke="#FFFFFF" stroke-width="0.1552" stroke-miterlimit="10" cx="102.003" cy="105.464" r="2.298"/>
		</g>
		<g>
			<path fill="none" stroke="#FFFFFF" stroke-width="0.1552" stroke-miterlimit="10" d="M95.732,108.84
				c1.617,0.881,3.645,0.285,4.524-1.334c0.884-1.617,0.285-3.645-1.333-4.525c-1.617-0.883-10.055-1.678-10.055-1.678
				S94.114,107.959,95.732,108.84z"/>
			<path fill="none" stroke="#FFFFFF" stroke-width="0.1552" stroke-miterlimit="10" d="M97.141,108.424
				c1.114,0.607,2.51,0.197,3.116-0.918c0.608-1.113,0.197-2.51-0.918-3.117c-1.114-0.607-6.927-1.156-6.927-1.156
				S96.025,107.818,97.141,108.424z"/>
			<circle fill="none" stroke="#FFFFFF" stroke-width="0.1552" stroke-miterlimit="10" cx="100.553" cy="107.668" r="2.298"/>
		</g>
		<g>
			<path fill="none" stroke="#FFFFFF" stroke-width="0.1552" stroke-miterlimit="10" d="M94.67,111.682
				c1.701,0.707,3.654-0.1,4.361-1.801c0.707-1.703-0.1-3.654-1.801-4.361c-1.7-0.707-10.174-0.615-10.174-0.615
				S92.969,110.975,94.67,111.682z"/>
			<path fill="none" stroke="#FFFFFF" stroke-width="0.1552" stroke-miterlimit="10" d="M96.027,111.121
				c1.172,0.488,2.518-0.068,3.004-1.24c0.487-1.172-0.067-2.518-1.24-3.004c-1.172-0.486-7.01-0.424-7.01-0.424
				S94.855,110.633,96.027,111.121z"/>
			<circle fill="none" stroke="#FFFFFF" stroke-width="0.1552" stroke-miterlimit="10" cx="99.343" cy="110.01" r="2.299"/>
		</g>
		<g>
			<path fill="none" stroke="#FFFFFF" stroke-width="0.1552" stroke-miterlimit="10" d="M93.913,114.617
				c1.765,0.525,3.624-0.48,4.147-2.246c0.525-1.766-0.48-3.623-2.246-4.148c-1.768-0.525-10.185,0.455-10.185,0.455
				S92.146,114.094,93.913,114.617z"/>
			<path fill="none" stroke="#FFFFFF" stroke-width="0.1552" stroke-miterlimit="10" d="M95.203,113.92
				c1.217,0.361,2.496-0.332,2.857-1.549c0.362-1.217-0.332-2.496-1.548-2.857c-1.218-0.361-7.015,0.312-7.015,0.312
				S93.986,113.559,95.203,113.92z"/>
			<circle fill="none" stroke="#FFFFFF" stroke-width="0.1552" stroke-miterlimit="10" cx="98.385" cy="112.467" r="2.298"/>
		</g>
		<g>
			<path fill="none" stroke="#FFFFFF" stroke-width="0.1552" stroke-miterlimit="10" d="M93.469,117.619
				c1.811,0.336,3.553-0.857,3.888-2.67c0.337-1.812-0.858-3.553-2.669-3.891c-1.812-0.336-10.08,1.521-10.08,1.521
				S91.657,117.283,93.469,117.619z"/>
			<path fill="none" stroke="#FFFFFF" stroke-width="0.1552" stroke-miterlimit="10" d="M94.678,116.789
				c1.248,0.232,2.448-0.592,2.68-1.84s-0.592-2.449-1.84-2.68c-1.249-0.23-6.943,1.047-6.943,1.047S93.43,116.557,94.678,116.789z"
				/>
			<circle fill="none" stroke="#FFFFFF" stroke-width="0.1552" stroke-miterlimit="10" cx="97.688" cy="115.011" r="2.297"/>
		</g>
		<g>
			<path fill="none" stroke="#FFFFFF" stroke-width="0.1552" stroke-miterlimit="10" d="M93.34,120.65
				c1.836,0.145,3.443-1.229,3.588-3.062c0.145-1.838-1.227-3.443-3.062-3.59c-1.837-0.145-9.865,2.568-9.865,2.568
				S91.502,120.506,93.34,120.65z"/>
			<path fill="none" stroke="#FFFFFF" stroke-width="0.1552" stroke-miterlimit="10" d="M94.455,119.697
				c1.266,0.1,2.373-0.846,2.473-2.109c0.1-1.266-0.846-2.373-2.109-2.473c-1.267-0.1-6.797,1.77-6.797,1.77
				S93.19,119.598,94.455,119.697z"/>
			<circle fill="none" stroke="#FFFFFF" stroke-width="0.1552" stroke-miterlimit="10" cx="97.264" cy="117.612" r="2.299"/>
		</g>
	</g>
</g>
<path fill="#231F20" d="M361.446,190.561c0,0-36.588-9.074-48.702-18.73c0,0,7.164,17.533,0,37.529
	C323.671,201.379,361.446,190.561,361.446,190.561z"/>
<path fill="#FFFFFF" d="M332.244,182.295c-2.078,0-3.763,6.189-3.763,8.266c0,2.078,1.685,8.266,3.763,8.266
	s3.765-6.188,3.765-8.266C336.009,188.484,334.322,182.295,332.244,182.295z"/>
<circle fill="#231F20" cx="332.244" cy="190.561" r="3.559"/>
<circle fill="#FFFFFF" cx="333.555" cy="191.68" r="1.311"/>
<path fill="#FFFFFF" d="M339.942,186.082c-1.125,0-2.038,3.354-2.038,4.479c0,1.127,0.913,4.479,2.038,4.479
	c1.126,0,2.039-3.352,2.039-4.479C341.981,189.436,341.068,186.082,339.942,186.082z"/>
<circle fill="#231F20" cx="339.942" cy="190.561" r="1.928"/>
<circle fill="#FFFFFF" cx="340.653" cy="191.167" r="0.71"/>
<g>
	<defs>
		<path id="SVGID_2_" d="M361.446,190.525c0,0-36.588-9.076-48.702-18.73c0,0,7.164,17.533,0,37.531
			C323.671,201.344,361.446,190.525,361.446,190.525z"/>
	</defs>
	<clipPath id="SVGID_15_">
		<use xlink:href="#SVGID_2_"  overflow="visible"/>
	</clipPath>
	<g clip-path="url(#SVGID_15_)">
		<g>
			<path fill="none" stroke="#FFFFFF" stroke-width="0.1552" stroke-miterlimit="10" d="M313.26,205.324
				c-1.567-0.967-3.623-0.482-4.592,1.084s-0.483,3.623,1.084,4.592s9.946,2.227,9.946,2.227S314.827,206.293,313.26,205.324z"/>
			<path fill="none" stroke="#FFFFFF" stroke-width="0.1552" stroke-miterlimit="10" d="M311.832,205.662
				c-1.081-0.668-2.497-0.334-3.164,0.746c-0.666,1.08-0.334,2.496,0.746,3.164c1.081,0.666,6.853,1.533,6.853,1.533
				S312.911,206.33,311.832,205.662z"/>
			<circle fill="none" stroke="#FFFFFF" stroke-width="0.1552" stroke-miterlimit="10" cx="308.382" cy="206.231" r="2.297"/>
		</g>
		<g>
			<path fill="none" stroke="#FFFFFF" stroke-width="0.1552" stroke-miterlimit="10" d="M314.475,202.547
				c-1.66-0.801-3.653-0.104-4.452,1.557c-0.8,1.662-0.101,3.654,1.559,4.453c1.659,0.801,10.126,1.174,10.126,1.174
				S316.136,203.344,314.475,202.547z"/>
			<path fill="none" stroke="#FFFFFF" stroke-width="0.1552" stroke-miterlimit="10" d="M313.09,203.031
				c-1.143-0.551-2.517-0.07-3.066,1.072c-0.552,1.145-0.072,2.518,1.073,3.068c1.144,0.551,6.975,0.807,6.975,0.807
				S314.234,203.582,313.09,203.031z"/>
			<circle fill="none" stroke="#FFFFFF" stroke-width="0.1552" stroke-miterlimit="10" cx="309.719" cy="203.959" r="2.298"/>
		</g>
		<g>
			<path fill="none" stroke="#FFFFFF" stroke-width="0.1552" stroke-miterlimit="10" d="M315.393,199.654
				c-1.734-0.621-3.644,0.283-4.265,2.018c-0.62,1.732,0.281,3.645,2.017,4.266c1.735,0.619,10.192,0.102,10.192,0.102
				S317.127,200.275,315.393,199.654z"/>
			<path fill="none" stroke="#FFFFFF" stroke-width="0.1552" stroke-miterlimit="10" d="M314.066,200.281
				c-1.195-0.426-2.512,0.193-2.938,1.391c-0.429,1.195,0.193,2.51,1.39,2.936c1.193,0.43,7.02,0.074,7.02,0.074
				S315.262,200.709,314.066,200.281z"/>
			<circle fill="none" stroke="#FFFFFF" stroke-width="0.1552" stroke-miterlimit="10" cx="310.811" cy="201.559" r="2.298"/>
		</g>
		<g>
			<path fill="none" stroke="#FFFFFF" stroke-width="0.1552" stroke-miterlimit="10" d="M316.002,196.684
				c-1.79-0.438-3.595,0.662-4.03,2.453c-0.436,1.789,0.664,3.594,2.453,4.029c1.79,0.436,10.147-0.967,10.147-0.967
				S317.794,197.117,316.002,196.684z"/>
			<path fill="none" stroke="#FFFFFF" stroke-width="0.1552" stroke-miterlimit="10" d="M314.749,197.445
				c-1.233-0.301-2.476,0.457-2.777,1.689c-0.3,1.234,0.457,2.477,1.689,2.777c1.233,0.301,6.991-0.666,6.991-0.666
				S315.982,197.746,314.749,197.445z"/>
			<circle fill="none" stroke="#FFFFFF" stroke-width="0.1552" stroke-miterlimit="10" cx="311.645" cy="199.056" r="2.299"/>
		</g>
		<g>
			<path fill="none" stroke="#FFFFFF" stroke-width="0.1552" stroke-miterlimit="10" d="M316.296,193.664
				c-1.825-0.246-3.504,1.037-3.749,2.861c-0.246,1.826,1.035,3.506,2.861,3.752c1.826,0.244,9.989-2.025,9.989-2.025
				S318.123,193.91,316.296,193.664z"/>
			<path fill="none" stroke="#FFFFFF" stroke-width="0.1552" stroke-miterlimit="10" d="M315.131,194.553
				c-1.26-0.168-2.416,0.715-2.584,1.973c-0.17,1.258,0.713,2.414,1.971,2.584s6.882-1.395,6.882-1.395
				S316.388,194.723,315.131,194.553z"/>
			<circle fill="none" stroke="#FFFFFF" stroke-width="0.1552" stroke-miterlimit="10" cx="312.212" cy="196.48" r="2.298"/>
		</g>
		<g>
			<path fill="none" stroke="#FFFFFF" stroke-width="0.1552" stroke-miterlimit="10" d="M316.273,190.631
				c-1.843-0.053-3.378,1.396-3.431,3.238s1.397,3.377,3.24,3.43c1.841,0.055,9.722-3.057,9.722-3.057
				S318.114,190.684,316.273,190.631z"/>
			<path fill="none" stroke="#FFFFFF" stroke-width="0.1552" stroke-miterlimit="10" d="M315.206,191.639
				c-1.27-0.037-2.327,0.963-2.363,2.23s0.963,2.326,2.231,2.363s6.699-2.107,6.699-2.107S316.476,191.674,315.206,191.639z"/>
			<circle fill="none" stroke="#FFFFFF" stroke-width="0.1552" stroke-miterlimit="10" cx="312.506" cy="193.86" r="2.299"/>
		</g>
		<g>
			<path fill="none" stroke="#FFFFFF" stroke-width="0.1552" stroke-miterlimit="10" d="M315.931,187.617
				c-1.838,0.139-3.212,1.744-3.071,3.58c0.142,1.836,1.745,3.213,3.58,3.072c1.839-0.141,9.35-4.062,9.35-4.062
				S317.768,187.475,315.931,187.617z"/>
			<path fill="none" stroke="#FFFFFF" stroke-width="0.1552" stroke-miterlimit="10" d="M314.976,188.73
				c-1.266,0.098-2.212,1.201-2.116,2.467c0.097,1.266,1.202,2.213,2.467,2.115c1.266-0.096,6.441-2.799,6.441-2.799
				S316.241,188.633,314.976,188.73z"/>
			<circle fill="none" stroke="#FFFFFF" stroke-width="0.1552" stroke-miterlimit="10" cx="312.524" cy="191.223" r="2.298"/>
		</g>
		<g>
			<path fill="none" stroke="#FFFFFF" stroke-width="0.1552" stroke-miterlimit="10" d="M315.275,184.654
				c-1.812,0.332-3.012,2.072-2.68,3.883c0.334,1.812,2.072,3.012,3.883,2.68c1.813-0.334,8.872-5.02,8.872-5.02
				S317.088,184.32,315.275,184.654z"/>
			<path fill="none" stroke="#FFFFFF" stroke-width="0.1552" stroke-miterlimit="10" d="M314.442,185.863
				c-1.249,0.229-2.075,1.426-1.847,2.674c0.23,1.248,1.428,2.076,2.676,1.846c1.249-0.227,6.111-3.457,6.111-3.457
				S315.69,185.633,314.442,185.863z"/>
			<circle fill="none" stroke="#FFFFFF" stroke-width="0.1552" stroke-miterlimit="10" cx="312.266" cy="188.599" r="2.299"/>
		</g>
		<g>
			<path fill="none" stroke="#FFFFFF" stroke-width="0.1552" stroke-miterlimit="10" d="M314.312,181.777
				c-1.767,0.521-2.778,2.375-2.256,4.143c0.52,1.768,2.374,2.779,4.142,2.258c1.767-0.52,8.296-5.924,8.296-5.924
				S316.079,181.256,314.312,181.777z"/>
			<path fill="none" stroke="#FFFFFF" stroke-width="0.1552" stroke-miterlimit="10" d="M313.61,183.066
				c-1.218,0.357-1.914,1.637-1.554,2.854c0.357,1.219,1.635,1.914,2.854,1.555c1.216-0.359,5.715-4.08,5.715-4.08
				S314.828,182.707,313.61,183.066z"/>
			<circle fill="none" stroke="#FFFFFF" stroke-width="0.1552" stroke-miterlimit="10" cx="311.732" cy="186.015" r="2.298"/>
		</g>
		<g>
			<path fill="none" stroke="#FFFFFF" stroke-width="0.1552" stroke-miterlimit="10" d="M313.054,179.018
				c-1.703,0.701-2.514,2.652-1.811,4.355c0.704,1.705,2.654,2.516,4.356,1.812c1.703-0.703,7.63-6.76,7.63-6.76
				S314.757,178.314,313.054,179.018z"/>
			<path fill="none" stroke="#FFFFFF" stroke-width="0.1552" stroke-miterlimit="10" d="M312.49,180.373
				c-1.173,0.482-1.731,1.828-1.247,3c0.485,1.174,1.829,1.734,3.002,1.248c1.173-0.484,5.255-4.656,5.255-4.656
				S313.663,179.889,312.49,180.373z"/>
			<circle fill="none" stroke="#FFFFFF" stroke-width="0.1552" stroke-miterlimit="10" cx="310.933" cy="183.503" r="2.298"/>
		</g>
		<g>
			<path fill="none" stroke="#FFFFFF" stroke-width="0.1552" stroke-miterlimit="10" d="M311.514,176.404
				c-1.62,0.877-2.223,2.904-1.346,4.521c0.879,1.621,2.903,2.223,4.523,1.346c1.62-0.879,6.88-7.523,6.88-7.523
				S313.132,175.525,311.514,176.404z"/>
			<path fill="none" stroke="#FFFFFF" stroke-width="0.1552" stroke-miterlimit="10" d="M311.095,177.811
				c-1.117,0.605-1.53,2-0.927,3.115c0.605,1.117,2.002,1.531,3.116,0.928c1.116-0.605,4.738-5.182,4.738-5.182
				S312.211,177.207,311.095,177.811z"/>
			<circle fill="none" stroke="#FFFFFF" stroke-width="0.1552" stroke-miterlimit="10" cx="309.873" cy="181.087" r="2.298"/>
		</g>
		<g>
			<path fill="none" stroke="#FFFFFF" stroke-width="0.1552" stroke-miterlimit="10" d="M309.705,173.969
				c-1.519,1.041-1.904,3.117-0.86,4.637c1.043,1.52,3.118,1.906,4.638,0.863c1.518-1.043,6.052-8.203,6.052-8.203
				S311.225,172.926,309.705,173.969z"/>
			<path fill="none" stroke="#FFFFFF" stroke-width="0.1552" stroke-miterlimit="10" d="M309.438,175.41
				c-1.048,0.719-1.313,2.15-0.594,3.195c0.718,1.047,2.148,1.312,3.194,0.594c1.048-0.719,4.169-5.65,4.169-5.65
				S310.483,174.693,309.438,175.41z"/>
			<circle fill="none" stroke="#FFFFFF" stroke-width="0.1552" stroke-miterlimit="10" cx="308.565" cy="178.797" r="2.299"/>
		</g>
		<g>
			<path fill="none" stroke="#FFFFFF" stroke-width="0.1552" stroke-miterlimit="10" d="M307.652,171.734
				c-1.4,1.195-1.566,3.303-0.37,4.701c1.196,1.402,3.302,1.568,4.703,0.375c1.401-1.197,5.159-8.793,5.159-8.793
				S309.055,170.537,307.652,171.734z"/>
			<path fill="none" stroke="#FFFFFF" stroke-width="0.1552" stroke-miterlimit="10" d="M307.538,173.197
				c-0.966,0.824-1.08,2.275-0.256,3.238c0.824,0.967,2.275,1.082,3.24,0.258c0.966-0.824,3.554-6.057,3.554-6.057
				S308.503,172.373,307.538,173.197z"/>
			<circle fill="none" stroke="#FFFFFF" stroke-width="0.1552" stroke-miterlimit="10" cx="307.026" cy="176.656" r="2.299"/>
		</g>
	</g>
</g>
<path fill="#231F20" d="M18.387,190.596c0,0,36.588,9.074,48.703,18.73c0,0-7.165-17.533,0-37.531
	C56.162,179.775,18.387,190.596,18.387,190.596z"/>
<path fill="#FFFFFF" d="M47.588,198.861c2.079,0,3.764-6.188,3.764-8.266c0-2.08-1.685-8.268-3.764-8.268
	c-2.078,0-3.763,6.188-3.763,8.268C43.825,192.674,45.51,198.861,47.588,198.861z"/>
<circle fill="#231F20" cx="47.588" cy="190.596" r="3.559"/>
<circle fill="#FFFFFF" cx="46.277" cy="189.477" r="1.311"/>
<path fill="#FFFFFF" d="M39.891,195.074c1.125,0,2.038-3.354,2.038-4.479c0-1.127-0.913-4.479-2.038-4.479
	c-1.127,0-2.039,3.352-2.039,4.479C37.852,191.721,38.764,195.074,39.891,195.074z"/>
<circle fill="#231F20" cx="39.891" cy="190.595" r="1.927"/>
<circle fill="#FFFFFF" cx="39.18" cy="189.989" r="0.71"/>
<g>
	<defs>
		<path id="SVGID_1_" d="M18.387,190.631c0,0,36.588,9.074,48.703,18.729c0,0-7.165-17.531,0-37.529
			C56.162,179.811,18.387,190.631,18.387,190.631z"/>
	</defs>
	<clipPath id="SVGID_16_">
		<use xlink:href="#SVGID_1_"  overflow="visible"/>
	</clipPath>
	<g clip-path="url(#SVGID_16_)">
		<g>
			<path fill="none" stroke="#FFFFFF" stroke-width="0.1552" stroke-miterlimit="10" d="M66.572,175.83
				c1.568,0.969,3.623,0.484,4.594-1.082c0.968-1.566,0.482-3.623-1.085-4.592s-9.946-2.229-9.946-2.229
				S65.006,174.863,66.572,175.83z"/>
			<path fill="none" stroke="#FFFFFF" stroke-width="0.1552" stroke-miterlimit="10" d="M68,175.494
				c1.082,0.668,2.498,0.332,3.166-0.746c0.666-1.08,0.333-2.496-0.748-3.164c-1.079-0.668-6.852-1.533-6.852-1.533
				S66.922,174.826,68,175.494z"/>
			<circle fill="none" stroke="#FFFFFF" stroke-width="0.1552" stroke-miterlimit="10" cx="71.452" cy="174.925" r="2.298"/>
		</g>
		<g>
			<path fill="none" stroke="#FFFFFF" stroke-width="0.1552" stroke-miterlimit="10" d="M65.358,178.609
				c1.659,0.801,3.653,0.102,4.452-1.557c0.801-1.662,0.101-3.654-1.559-4.453c-1.66-0.801-10.125-1.174-10.125-1.174
				S63.697,177.812,65.358,178.609z"/>
			<path fill="none" stroke="#FFFFFF" stroke-width="0.1552" stroke-miterlimit="10" d="M66.742,178.125
				c1.145,0.551,2.519,0.07,3.068-1.072c0.551-1.145,0.07-2.518-1.073-3.068s-6.976-0.807-6.976-0.807
				S65.599,177.574,66.742,178.125z"/>
			<circle fill="none" stroke="#FFFFFF" stroke-width="0.1552" stroke-miterlimit="10" cx="70.114" cy="177.197" r="2.298"/>
		</g>
		<g>
			<path fill="none" stroke="#FFFFFF" stroke-width="0.1552" stroke-miterlimit="10" d="M64.439,181.502
				c1.735,0.621,3.645-0.283,4.267-2.018c0.62-1.734-0.282-3.645-2.019-4.266c-1.734-0.621-10.191-0.104-10.191-0.104
				S62.707,180.881,64.439,181.502z"/>
			<path fill="none" stroke="#FFFFFF" stroke-width="0.1552" stroke-miterlimit="10" d="M65.767,180.875
				c1.196,0.426,2.511-0.195,2.938-1.391c0.429-1.195-0.193-2.51-1.39-2.938c-1.194-0.428-7.02-0.072-7.02-0.072
				S64.572,180.447,65.767,180.875z"/>
			<circle fill="none" stroke="#FFFFFF" stroke-width="0.1552" stroke-miterlimit="10" cx="69.022" cy="179.598" r="2.298"/>
		</g>
		<g>
			<path fill="none" stroke="#FFFFFF" stroke-width="0.1552" stroke-miterlimit="10" d="M63.83,184.473
				c1.791,0.438,3.596-0.662,4.031-2.453c0.436-1.789-0.663-3.594-2.454-4.029c-1.79-0.438-10.146,0.965-10.146,0.965
				S62.04,184.039,63.83,184.473z"/>
			<path fill="none" stroke="#FFFFFF" stroke-width="0.1552" stroke-miterlimit="10" d="M65.085,183.711
				c1.233,0.301,2.476-0.457,2.776-1.689c0.3-1.234-0.457-2.477-1.689-2.777c-1.234-0.301-6.992,0.666-6.992,0.666
				S63.852,183.41,65.085,183.711z"/>
			<circle fill="none" stroke="#FFFFFF" stroke-width="0.1552" stroke-miterlimit="10" cx="68.188" cy="182.101" r="2.299"/>
		</g>
		<g>
			<path fill="none" stroke="#FFFFFF" stroke-width="0.1552" stroke-miterlimit="10" d="M63.537,187.492
				c1.825,0.246,3.504-1.037,3.75-2.861c0.246-1.826-1.037-3.506-2.862-3.752c-1.825-0.244-9.99,2.023-9.99,2.023
				S61.711,187.248,63.537,187.492z"/>
			<path fill="none" stroke="#FFFFFF" stroke-width="0.1552" stroke-miterlimit="10" d="M64.703,186.602
				c1.259,0.17,2.415-0.713,2.584-1.971c0.168-1.258-0.715-2.416-1.973-2.584c-1.258-0.17-6.881,1.395-6.881,1.395
				S63.445,186.432,64.703,186.602z"/>
			<circle fill="none" stroke="#FFFFFF" stroke-width="0.1552" stroke-miterlimit="10" cx="67.621" cy="184.676" r="2.298"/>
		</g>
		<g>
			<path fill="none" stroke="#FFFFFF" stroke-width="0.1552" stroke-miterlimit="10" d="M63.559,190.525
				c1.844,0.053,3.379-1.398,3.432-3.238c0.053-1.844-1.398-3.377-3.24-3.43c-1.842-0.055-9.723,3.059-9.723,3.059
				S61.719,190.473,63.559,190.525z"/>
			<path fill="none" stroke="#FFFFFF" stroke-width="0.1552" stroke-miterlimit="10" d="M64.627,189.518
				c1.27,0.037,2.327-0.963,2.363-2.23s-0.963-2.326-2.231-2.363c-1.269-0.035-6.698,2.105-6.698,2.105
				S63.358,189.482,64.627,189.518z"/>
			<path fill="none" stroke="#FFFFFF" stroke-width="0.1552" stroke-miterlimit="10" d="M67.394,185
				c-1.27-0.037-2.327,0.963-2.363,2.23c-0.036,1.27,0.964,2.326,2.231,2.363c1.27,0.035,2.327-0.965,2.363-2.232
				C69.66,186.096,68.662,185.035,67.394,185z"/>
		</g>
		<g>
			<path fill="none" stroke="#FFFFFF" stroke-width="0.1552" stroke-miterlimit="10" d="M63.902,193.539
				c1.837-0.141,3.212-1.742,3.07-3.58c-0.141-1.836-1.744-3.211-3.58-3.072c-1.838,0.143-9.348,4.062-9.348,4.062
				S62.065,193.68,63.902,193.539z"/>
			<path fill="none" stroke="#FFFFFF" stroke-width="0.1552" stroke-miterlimit="10" d="M64.857,192.426
				c1.266-0.098,2.213-1.201,2.115-2.467c-0.096-1.266-1.201-2.215-2.466-2.115c-1.267,0.096-6.44,2.799-6.44,2.799
				S63.592,192.521,64.857,192.426z"/>
			<circle fill="none" stroke="#FFFFFF" stroke-width="0.1552" stroke-miterlimit="10" cx="67.309" cy="189.933" r="2.299"/>
		</g>
		<g>
			<path fill="none" stroke="#FFFFFF" stroke-width="0.1552" stroke-miterlimit="10" d="M64.558,196.502
				c1.812-0.332,3.011-2.072,2.679-3.883c-0.332-1.812-2.071-3.012-3.883-2.682c-1.812,0.334-8.871,5.021-8.871,5.021
				S62.744,196.836,64.558,196.502z"/>
			<path fill="none" stroke="#FFFFFF" stroke-width="0.1552" stroke-miterlimit="10" d="M65.392,195.293
				c1.249-0.229,2.073-1.426,1.845-2.674c-0.229-1.25-1.426-2.076-2.676-1.848c-1.248,0.229-6.11,3.459-6.11,3.459
				S64.143,195.523,65.392,195.293z"/>
			<circle fill="none" stroke="#FFFFFF" stroke-width="0.1552" stroke-miterlimit="10" cx="67.567" cy="192.558" r="2.299"/>
		</g>
		<g>
			<path fill="none" stroke="#FFFFFF" stroke-width="0.1552" stroke-miterlimit="10" d="M65.521,199.377
				c1.767-0.52,2.778-2.373,2.257-4.141c-0.52-1.77-2.375-2.777-4.143-2.258c-1.768,0.521-8.297,5.922-8.297,5.922
				S63.754,199.9,65.521,199.377z"/>
			<path fill="none" stroke="#FFFFFF" stroke-width="0.1552" stroke-miterlimit="10" d="M66.223,198.09
				c1.218-0.359,1.914-1.637,1.555-2.854c-0.357-1.219-1.637-1.914-2.854-1.557c-1.217,0.361-5.715,4.082-5.715,4.082
				S65.006,198.447,66.223,198.09z"/>
			<path fill="none" stroke="#FFFFFF" stroke-width="0.1552" stroke-miterlimit="10" d="M67.451,192.938
				c-1.218,0.355-1.914,1.635-1.555,2.852c0.359,1.219,1.637,1.914,2.854,1.557c1.218-0.359,1.914-1.639,1.555-2.854
				C69.947,193.273,68.668,192.576,67.451,192.938z"/>
		</g>
		<g>
			<path fill="none" stroke="#FFFFFF" stroke-width="0.1552" stroke-miterlimit="10" d="M66.778,202.139
				c1.703-0.703,2.515-2.654,1.811-4.355c-0.703-1.703-2.653-2.516-4.356-1.811c-1.702,0.701-7.629,6.758-7.629,6.758
				S65.076,202.842,66.778,202.139z"/>
			<path fill="none" stroke="#FFFFFF" stroke-width="0.1552" stroke-miterlimit="10" d="M67.342,200.783
				c1.174-0.482,1.732-1.828,1.247-3c-0.483-1.174-1.827-1.734-3.001-1.248c-1.172,0.484-5.256,4.654-5.256,4.654
				S66.17,201.268,67.342,200.783z"/>
			<circle fill="none" stroke="#FFFFFF" stroke-width="0.1552" stroke-miterlimit="10" cx="68.901" cy="197.653" r="2.298"/>
		</g>
		<g>
			<path fill="none" stroke="#FFFFFF" stroke-width="0.1552" stroke-miterlimit="10" d="M68.32,204.75
				c1.619-0.877,2.222-2.902,1.344-4.521c-0.877-1.621-2.902-2.223-4.522-1.346c-1.62,0.879-6.88,7.523-6.88,7.523
				S66.701,205.629,68.32,204.75z"/>
			<path fill="none" stroke="#FFFFFF" stroke-width="0.1552" stroke-miterlimit="10" d="M68.738,203.344
				c1.116-0.605,1.53-2,0.926-3.115c-0.604-1.117-2-1.529-3.115-0.926c-1.117,0.605-4.738,5.182-4.738,5.182
				S67.623,203.949,68.738,203.344z"/>
			<circle fill="none" stroke="#FFFFFF" stroke-width="0.1552" stroke-miterlimit="10" cx="69.961" cy="200.068" r="2.298"/>
		</g>
		<g>
			<path fill="none" stroke="#FFFFFF" stroke-width="0.1552" stroke-miterlimit="10" d="M70.128,207.188
				c1.519-1.043,1.905-3.119,0.86-4.637c-1.042-1.521-3.117-1.906-4.638-0.865c-1.519,1.045-6.052,8.205-6.052,8.205
				S68.609,208.23,70.128,207.188z"/>
			<path fill="none" stroke="#FFFFFF" stroke-width="0.1552" stroke-miterlimit="10" d="M70.396,205.744
				c1.046-0.719,1.312-2.15,0.594-3.193c-0.719-1.047-2.15-1.314-3.195-0.596c-1.047,0.719-4.17,5.65-4.17,5.65
				S69.35,206.463,70.396,205.744z"/>
			<circle fill="none" stroke="#FFFFFF" stroke-width="0.1552" stroke-miterlimit="10" cx="71.267" cy="202.358" r="2.298"/>
		</g>
		<g>
			<path fill="none" stroke="#FFFFFF" stroke-width="0.1552" stroke-miterlimit="10" d="M72.18,209.42
				c1.401-1.195,1.567-3.303,0.372-4.701c-1.196-1.4-3.303-1.566-4.704-0.373c-1.4,1.197-5.16,8.793-5.16,8.793
				S70.779,210.617,72.18,209.42z"/>
			<path fill="none" stroke="#FFFFFF" stroke-width="0.1552" stroke-miterlimit="10" d="M72.295,207.959
				c0.966-0.824,1.08-2.277,0.257-3.24c-0.824-0.965-2.276-1.08-3.24-0.256c-0.967,0.824-3.556,6.055-3.556,6.055
				S71.33,208.783,72.295,207.959z"/>
			<circle fill="none" stroke="#FFFFFF" stroke-width="0.1552" stroke-miterlimit="10" cx="72.807" cy="204.499" r="2.298"/>
		</g>
	</g>
</g>
<rect id="_x3C_Slice_x3E__9_" fill="none" width="380" height="381"/>
</svg>
