<?xml version="1.0" encoding="utf-8"?>
<!-- Generator: Adobe Illustrator 15.0.0, SVG Export Plug-In  -->
<!DOCTYPE svg PUBLIC "-//W3C//DTD SVG 1.1//EN" "http://www.w3.org/Graphics/SVG/1.1/DTD/svg11.dtd" [
	<!ENTITY ns_flows "http://ns.adobe.com/Flows/1.0/">
]>
<svg version="1.1"
	 xmlns="http://www.w3.org/2000/svg" xmlns:xlink="http://www.w3.org/1999/xlink" xmlns:a="http://ns.adobe.com/AdobeSVGViewerExtensions/3.0/"
	 x="0px" y="0px" width="108px" height="108px" viewBox="0 0 108 108" overflow="visible" enable-background="new 0 0 108 108"
	 xml:space="preserve">
<defs>
</defs>
<circle fill="#FFFFFF" stroke="#231F20" stroke-width="1.1598" stroke-miterlimit="10" cx="54.439" cy="54.346" r="52.929"/>
<path d="M95.101,54.261c-0.013-5.912-3.542-10.992-8.601-13.271c1.942-5.202,0.821-11.284-3.366-15.455
	c-4.19-4.171-10.279-5.269-15.469-3.303c-2.303-5.051-7.396-8.558-13.309-8.545c-5.913,0.013-10.993,3.541-13.273,8.601
	c-5.2-1.943-11.283-0.821-15.454,3.368c-4.171,4.188-5.268,10.275-3.303,15.468c-5.051,2.301-8.559,7.396-8.546,13.308
	c0.013,5.911,3.541,10.991,8.601,13.272c-1.943,5.201-0.821,11.281,3.369,15.454c4.188,4.171,10.275,5.268,15.468,3.304
	c2.302,5.05,7.395,8.557,13.307,8.546c5.912-0.012,10.992-3.542,13.273-8.602c5.199,1.944,11.282,0.82,15.453-3.368
	c4.172-4.189,5.268-10.276,3.304-15.468C91.606,65.268,95.112,60.172,95.101,54.261z"/>
<path fill="none" stroke="#FFFFFF" stroke-width="0.5263" stroke-miterlimit="10" d="M92.512,54.266
	c-0.012-5.536-3.315-10.292-8.054-12.428c1.819-4.869,0.769-10.565-3.152-14.471c-3.924-3.905-9.623-4.932-14.484-3.091
	c-2.157-4.73-6.924-8.015-12.462-8.003c-5.536,0.011-10.291,3.316-12.427,8.056c-4.869-1.821-10.564-0.771-14.471,3.15
	c-3.905,3.924-4.932,9.625-3.092,14.485c-4.729,2.156-8.015,6.925-8.002,12.46c0.01,5.537,3.315,10.293,8.055,12.427
	c-1.82,4.869-0.771,10.564,3.152,14.471c3.924,3.906,9.623,4.933,14.484,3.093c2.155,4.729,6.926,8.015,12.462,8.003
	c5.534-0.012,10.291-3.316,12.426-8.055c4.87,1.82,10.564,0.77,14.471-3.152c3.905-3.924,4.933-9.623,3.092-14.484
	C89.239,64.571,92.523,59.802,92.512,54.266z"/>
<path fill="#F4F5F5" d="M48.293,19.516c-1.596,1.034-3.788,3.114-3.864,4.959c0,0,0.922-2.323,5.091-1.478
	c1.501,0.304,2.362-2.003,1.744-2.957C50.644,19.088,49.314,18.853,48.293,19.516z"/>
<path fill="#F4F5F5" d="M60.308,19.49c1.599,1.029,3.8,3.099,3.883,4.943c0,0-0.929-2.319-5.096-1.456
	c-1.499,0.31-2.37-1.994-1.754-2.949C57.954,19.073,59.284,18.832,60.308,19.49z"/>
<path fill="#F4F5F5" d="M48.439,89.157c-1.601-1.03-3.802-3.099-3.885-4.944c0,0,0.93,2.319,5.096,1.456
	c1.5-0.308,2.371,1.994,1.755,2.95C50.792,89.573,49.462,89.814,48.439,89.157z"/>
<path fill="#F4F5F5" d="M60.452,89.132c1.597-1.037,3.788-3.116,3.864-4.959c0,0-0.919,2.322-5.089,1.476
	c-1.5-0.301-2.362,2.004-1.744,2.958C58.101,89.557,59.431,89.793,60.452,89.132z"/>
<path fill="#F4F5F5" d="M74.687,25.413c-1.861-0.399-4.879-0.478-6.239,0.773c0,0,2.29-0.991,4.646,2.556
	c0.845,1.276,3.084,0.254,3.321-0.86C76.653,26.772,75.879,25.666,74.687,25.413z"/>
<path fill="#F4F5F5" d="M83.2,33.888c0.405,1.86,0.497,4.88-0.749,6.244c0,0,0.981-2.299-2.575-4.634
	c-1.279-0.841-0.266-3.085,0.845-3.327C81.832,31.931,82.943,32.697,83.2,33.888z"/>
<path fill="#F4F5F5" d="M25.546,74.759c-0.405-1.861-0.497-4.88,0.749-6.243c0,0-0.98,2.296,2.575,4.633
	c1.278,0.842,0.266,3.085-0.845,3.328C26.915,76.718,25.805,75.948,25.546,74.759z"/>
<path fill="#F4F5F5" d="M34.057,83.237c1.861,0.396,4.883,0.475,6.241-0.775c0,0-2.294,0.991-4.646-2.556
	c-0.845-1.276-3.084-0.254-3.323,0.858C32.094,81.876,32.867,82.982,34.057,83.237z"/>
<path fill="#F4F5F5" d="M89.184,48.243c-1.037-1.594-3.117-3.785-4.964-3.863c0,0,2.325,0.92,1.479,5.089
	c-0.302,1.503,2.005,2.362,2.958,1.745C89.61,50.596,89.845,49.267,89.184,48.243z"/>
<path fill="#F4F5F5" d="M89.208,60.258c-1.029,1.6-3.1,3.801-4.946,3.886c0,0,2.319-0.932,1.457-5.099
	c-0.309-1.498,1.995-2.369,2.95-1.754C89.625,57.905,89.865,59.234,89.208,60.258z"/>
<path fill="#F4F5F5" d="M19.539,48.39c1.03-1.601,3.101-3.8,4.943-3.885c0,0-2.318,0.93-1.456,5.096
	c0.31,1.5-1.994,2.372-2.949,1.757C19.123,50.743,18.88,49.415,19.539,48.39z"/>
<path fill="#F4F5F5" d="M19.563,60.403c1.038,1.595,3.117,3.789,4.961,3.865c0,0-2.323-0.921-1.477-5.091
	c0.303-1.5-2.005-2.361-2.957-1.743C19.136,58.052,18.902,59.382,19.563,60.403z"/>
<path fill="#F4F5F5" d="M83.285,74.64c0.397-1.861,0.475-4.883-0.775-6.241c0,0,0.993,2.293-2.556,4.644
	c-1.273,0.846-0.252,3.086,0.859,3.323C81.925,76.603,83.031,75.83,83.285,74.64z"/>
<path fill="#F4F5F5" d="M74.808,83.153c-1.86,0.404-4.878,0.496-6.245-0.75c0,0,2.299,0.982,4.635-2.573
	c0.843-1.28,3.085-0.268,3.326,0.843C76.768,81.783,75.997,82.894,74.808,83.153z"/>
<path fill="#F4F5F5" d="M33.938,25.497c1.858-0.405,4.879-0.497,6.242,0.749c0,0-2.298-0.982-4.633,2.574
	c-0.842,1.28-3.088,0.266-3.329-0.843C31.979,26.868,32.748,25.756,33.938,25.497z"/>
<path fill="#F4F5F5" d="M25.461,34.009c-0.398,1.862-0.476,4.883,0.775,6.24c0,0-0.993-2.292,2.555-4.644
	c1.274-0.847,0.252-3.086-0.859-3.324C26.821,32.046,25.714,32.818,25.461,34.009z"/>
<path fill="#FFFFFF" d="M54.485,50.662c-3.114-2.523-7.019-4.035-12.019-4.03l0.027,13.323c3.001,0.003,5.139,1.591,5.327,4.043
	C47.817,64.114,48.051,64,48.051,64h0.02l13.303,0.209l0.019,0.116c0,0,0.376-0.064,0.375-0.179
	c0.178-2.455,1.727-4.256,4.728-4.271l-0.029-13.309C61.466,46.582,57.586,48.125,54.485,50.662z"/>
<circle fill="none" stroke="#FFFFFF" stroke-width="2.6084" stroke-miterlimit="10" cx="54.441" cy="54.345" r="26.723"/>
<rect id="_x3C_Slice_x3E__9_" fill="none" width="108" height="108"/>
</svg>
