<?xml version="1.0" encoding="utf-8"?>
<!-- Generator: Adobe Illustrator 15.0.0, SVG Export Plug-In  -->
<!DOCTYPE svg PUBLIC "-//W3C//DTD SVG 1.1//EN" "http://www.w3.org/Graphics/SVG/1.1/DTD/svg11.dtd" [
	<!ENTITY ns_flows "http://ns.adobe.com/Flows/1.0/">
]>
<svg version="1.1"
	 xmlns="http://www.w3.org/2000/svg" xmlns:xlink="http://www.w3.org/1999/xlink" xmlns:a="http://ns.adobe.com/AdobeSVGViewerExtensions/3.0/"
	 x="0px" y="0px" width="96px" height="95px" viewBox="0 0 96 95" overflow="visible" enable-background="new 0 0 96 95"
	 xml:space="preserve">
<defs>
</defs>
<ellipse transform="matrix(-0.7667 0.642 -0.642 -0.7667 67.0085 27.045)" fill="none" stroke="#231F20" stroke-width="0.7011" stroke-miterlimit="10" cx="28.59" cy="25.699" rx="6.54" ry="18.373"/>
<ellipse transform="matrix(-0.8895 0.4569 -0.4569 -0.8895 74.1694 26.2349)" fill="none" stroke="#231F20" stroke-width="0.7011" stroke-miterlimit="10" cx="33.913" cy="22.084" rx="6.541" ry="18.374"/>
<ellipse transform="matrix(-0.9685 0.2492 -0.2492 -0.9685 83.4654 28.9001)" fill="none" stroke="#231F20" stroke-width="0.7011" stroke-miterlimit="10" cx="39.903" cy="19.733" rx="6.54" ry="18.374"/>
<ellipse transform="matrix(-0.9996 0.0293 -0.0293 -0.9996 93.0569 36.159)" fill="none" stroke="#231F20" stroke-width="0.7011" stroke-miterlimit="10" cx="46.263" cy="18.762" rx="6.54" ry="18.375"/>
<ellipse transform="matrix(-0.9814 -0.1922 0.1922 -0.9814 100.6857 48.2054)" fill="none" stroke="#231F20" stroke-width="0.7011" stroke-miterlimit="10" cx="52.681" cy="19.22" rx="6.54" ry="18.376"/>
<path fill="none" stroke="#231F20" stroke-width="0.7011" stroke-miterlimit="10" d="M52.856,18.441
	c-4.099,9.282-4.743,17.992-1.439,19.451c3.305,1.459,9.308-4.883,13.406-14.166c4.097-9.284,4.743-17.993,1.439-19.453
	C62.957,2.815,56.955,9.158,52.856,18.441z"/>
<path fill="none" stroke="#231F20" stroke-width="0.7011" stroke-miterlimit="10" d="M59.181,20.363
	c-6.046,8.147-8.596,16.499-5.694,18.654c2.9,2.15,10.154-2.711,16.2-10.86c6.047-8.148,8.599-16.5,5.699-18.651
	C72.485,7.353,65.229,12.213,59.181,20.363z"/>
<ellipse transform="matrix(-0.6517 -0.7585 0.7585 -0.6517 92.597 99.708)" fill="none" stroke="#231F20" stroke-width="0.7011" stroke-miterlimit="10" cx="69.191" cy="28.594" rx="6.541" ry="18.377"/>
<ellipse transform="matrix(-0.4682 -0.8836 0.8836 -0.4682 77.0648 114.1189)" fill="none" stroke="#231F20" stroke-width="0.7011" stroke-miterlimit="10" cx="72.872" cy="33.87" rx="6.539" ry="18.373"/>
<path fill="none" stroke="#231F20" stroke-width="0.7011" stroke-miterlimit="10" d="M73.588,33.517
	c-9.795,2.655-16.968,7.632-16.026,11.119c0.948,3.485,9.654,4.161,19.446,1.505c9.797-2.652,16.97-7.631,16.027-11.116
	C92.091,31.537,83.382,30.862,73.588,33.517z"/>
<path fill="none" stroke="#231F20" stroke-width="0.7011" stroke-miterlimit="10" d="M76.074,39.645
	C65.937,40.07,57.841,43.34,57.99,46.949c0.154,3.607,8.497,6.19,18.634,5.761c10.141-0.423,18.235-3.696,18.086-7.305
	C94.557,41.797,86.212,39.218,76.074,39.645z"/>
<path fill="none" stroke="#231F20" stroke-width="0.7011" stroke-miterlimit="10" d="M77.147,46.167
	c-9.983-1.823-18.6-0.419-19.25,3.134c-0.645,3.554,6.919,7.912,16.901,9.73c9.982,1.825,18.601,0.422,19.249-3.133
	C94.698,52.346,87.129,47.99,77.147,46.167z"/>
<path fill="none" stroke="#231F20" stroke-width="0.7011" stroke-miterlimit="10" d="M76.753,52.766
	c-9.334-3.98-18.047-4.515-19.469-1.192c-1.413,3.323,5.006,9.243,14.339,13.224c9.335,3.982,18.049,4.517,19.467,1.194
	C92.509,62.67,86.088,56.748,76.753,52.766z"/>
<path fill="none" stroke="#231F20" stroke-width="0.7011" stroke-miterlimit="10" d="M74.911,59.115
	c-8.225-5.943-16.604-8.387-18.724-5.462c-2.113,2.931,2.84,10.122,11.065,16.062c8.226,5.946,16.604,8.392,18.723,5.464
	C88.094,72.253,83.137,65.061,74.911,59.115z"/>
<ellipse transform="matrix(0.7502 -0.6612 0.6612 0.7502 -29.0848 61.4719)" fill="none" stroke="#231F20" stroke-width="0.7011" stroke-miterlimit="10" cx="66.809" cy="69.227" rx="6.54" ry="18.375"/>
<ellipse transform="matrix(0.8895 -0.4569 0.4569 0.8895 -26.253 36.1604)" fill="none" stroke="#231F20" stroke-width="0.7011" stroke-miterlimit="10" cx="61.651" cy="72.37" rx="6.541" ry="18.374"/>
<ellipse transform="matrix(0.9685 -0.2492 0.2492 0.9685 -16.8647 16.2284)" fill="none" stroke="#231F20" stroke-width="0.7011" stroke-miterlimit="10" cx="55.661" cy="74.721" rx="6.54" ry="18.374"/>
<ellipse transform="matrix(0.9996 -0.0293 0.0293 0.9996 -2.1996 1.4791)" fill="none" stroke="#231F20" stroke-width="0.7011" stroke-miterlimit="10" cx="49.301" cy="75.692" rx="6.54" ry="18.375"/>
<ellipse transform="matrix(0.9814 0.1922 -0.1922 0.9814 15.2579 -6.839)" fill="none" stroke="#231F20" stroke-width="0.7011" stroke-miterlimit="10" cx="42.884" cy="75.234" rx="6.54" ry="18.376"/>
<path fill="none" stroke="#231F20" stroke-width="0.7011" stroke-miterlimit="10" d="M42.708,76.013
	c4.099-9.282,4.743-17.992,1.439-19.451c-3.305-1.459-9.308,4.883-13.406,14.166c-4.097,9.284-4.743,17.993-1.439,19.453
	C32.607,91.639,38.609,85.296,42.708,76.013z"/>
<path fill="none" stroke="#231F20" stroke-width="0.7011" stroke-miterlimit="10" d="M36.384,74.091
	c6.046-8.147,8.596-16.499,5.694-18.654c-2.9-2.15-10.154,2.711-16.2,10.86c-6.047,8.148-8.599,16.5-5.699,18.651
	C23.079,87.102,30.335,82.241,36.384,74.091z"/>
<ellipse transform="matrix(0.6517 0.7585 -0.7585 0.6517 59.1382 2.9353)" fill="none" stroke="#231F20" stroke-width="0.7011" stroke-miterlimit="10" cx="26.373" cy="65.86" rx="6.541" ry="18.377"/>
<ellipse transform="matrix(0.4682 0.8836 -0.8836 0.4682 65.5996 12.165)" fill="none" stroke="#231F20" stroke-width="0.7011" stroke-miterlimit="10" cx="22.693" cy="60.584" rx="6.539" ry="18.373"/>
<path fill="none" stroke="#231F20" stroke-width="0.7011" stroke-miterlimit="10" d="M21.977,60.938
	c9.795-2.655,16.968-7.632,16.026-11.119c-0.948-3.485-9.654-4.161-19.446-1.505C8.76,50.966,1.587,55.944,2.529,59.43
	C3.474,62.917,12.183,63.592,21.977,60.938z"/>
<path fill="none" stroke="#231F20" stroke-width="0.7011" stroke-miterlimit="10" d="M19.49,54.81
	c10.138-0.426,18.233-3.695,18.084-7.305c-0.154-3.607-8.497-6.19-18.634-5.761C8.8,42.167,0.705,45.44,0.854,49.049
	C1.008,52.657,9.353,55.236,19.49,54.81z"/>
<path fill="none" stroke="#231F20" stroke-width="0.7011" stroke-miterlimit="10" d="M18.417,48.287
	c9.983,1.823,18.6,0.419,19.25-3.134c0.645-3.554-6.919-7.912-16.901-9.73c-9.982-1.825-18.601-0.422-19.249,3.133
	C0.866,42.108,8.436,46.464,18.417,48.287z"/>
<path fill="none" stroke="#231F20" stroke-width="0.7011" stroke-miterlimit="10" d="M18.812,41.688
	c9.334,3.98,18.047,4.515,19.469,1.192c1.413-3.323-5.006-9.243-14.339-13.224c-9.335-3.982-18.049-4.517-19.467-1.194
	C3.056,31.784,9.477,37.706,18.812,41.688z"/>
<path fill="none" stroke="#231F20" stroke-width="0.7011" stroke-miterlimit="10" d="M20.653,35.339
	c8.225,5.943,16.604,8.387,18.724,5.462c2.113-2.931-2.84-10.122-11.065-16.062c-8.226-5.946-16.604-8.392-18.723-5.464
	C7.471,22.201,12.428,29.394,20.653,35.339z"/>
<path fill="#FFFFFF" stroke="#231F20" stroke-width="1.4021" stroke-miterlimit="10" d="M57.75,71.364
	c-13.33,5.506-28.601-0.838-34.105-14.169c-5.505-13.333,0.838-28.602,14.167-34.106c13.333-5.506,28.602,0.838,34.108,14.17
	C77.426,50.589,71.082,65.858,57.75,71.364z"/>
<g>
	<circle fill="#FFFFFF" cx="47.78" cy="47.226" r="23.378"/>
	
		<circle fill="none" stroke="#231F20" stroke-width="1.2552" stroke-linecap="round" stroke-linejoin="round" stroke-dasharray="1.412,4.2359" cx="47.78" cy="47.226" r="23.378"/>
</g>
<rect id="_x3C_Slice_x3E__9_" fill="none" width="96" height="95"/>
</svg>
